<?xml version="1.0" standalone="no"?>
<!DOCTYPE svg PUBLIC "-//W3C//DTD SVG 20010904//EN"
 "http://www.w3.org/TR/2001/REC-SVG-20010904/DTD/svg10.dtd">
<svg version="1.0" xmlns="http://www.w3.org/2000/svg"
 width="1343.000000pt" height="321.000000pt" viewBox="0 0 1343.000000 321.000000"
 preserveAspectRatio="xMidYMid meet">

<g transform="translate(0.000000,321.000000) scale(0.100000,-0.100000)"
fill="#000000" stroke="none">
<path d="M0 1605 l0 -1605 1900 0 c1260 0 1900 3 1900 10 0 6 -6 10 -14 10 -8
0 -16 7 -20 15 -4 11 2 15 22 16 15 1 32 0 37 -1 6 -1 20 -3 32 -4 13 0 23 -5
23 -11 0 -5 5 -2 11 8 5 9 17 17 25 17 8 0 12 5 9 10 -4 7 3 9 22 4 50 -11 80
-27 89 -48 9 -21 12 -21 595 -24 l586 -2 -4 24 c-3 13 0 27 6 30 7 5 11 -4 11
-23 l0 -31 104 0 c85 0 105 3 110 16 3 8 2 13 -3 9 -6 -3 -9 22 -8 58 l2 64
26 -19 c23 -17 25 -25 22 -74 l-3 -54 100 0 100 0 0 28 c0 15 5 34 10 42 7 11
10 4 10 -27 l0 -43 219 0 c186 0 222 2 235 16 15 14 16 14 16 0 0 -13 12 -16
63 -16 l62 0 26 49 c19 37 23 53 15 62 -8 9 -8 10 2 5 6 -4 12 -3 12 3 0 5 3
16 6 25 4 11 0 16 -14 16 -22 0 -36 13 -26 23 3 3 17 2 30 -3 20 -8 24 -6 24
10 0 34 22 70 44 71 18 1 18 2 -4 8 -26 8 -27 12 -14 45 5 13 4 17 -3 13 -12
-7 -10 36 2 65 4 9 4 22 0 28 -3 5 1 13 11 17 14 5 13 8 -7 19 -13 7 -23 15
-21 18 1 3 2 12 1 19 -1 23 -46 -118 -53 -168 -4 -27 -12 -63 -18 -80 -18 -48
-58 -106 -68 -100 -5 3 -7 27 -6 53 2 26 -2 53 -8 61 -8 11 -8 13 2 7 6 -4 12
-3 12 3 0 5 -6 11 -12 14 -10 4 -10 7 0 18 6 7 12 16 12 20 0 7 -39 22 -52 20
-3 0 -12 13 -19 29 -7 15 -17 26 -23 23 -5 -4 -6 7 -2 28 4 19 9 51 11 73 3
21 9 44 14 50 5 6 12 32 15 57 3 25 8 53 12 62 3 10 1 17 -5 17 -6 0 -11 5
-11 11 0 5 5 7 10 4 7 -4 10 17 9 57 -2 69 9 148 21 148 4 0 20 17 36 37 15
20 22 33 16 29 -9 -5 -12 5 -12 34 0 23 4 39 8 36 4 -2 9 5 9 17 2 17 0 19 -7
7 -8 -13 -10 -13 -10 2 0 9 6 19 13 21 10 4 10 6 0 6 -7 1 -13 8 -13 16 0 8
-5 15 -11 15 -8 0 -8 4 0 13 6 8 9 23 6 35 -2 12 0 24 4 27 5 2 5 26 0 52 -8
40 -6 49 10 64 23 21 21 55 -2 53 -11 -1 -16 5 -13 19 4 27 26 35 27 10 0 -13
2 -14 6 -4 3 8 -2 20 -13 28 -14 11 -15 13 -2 13 11 0 17 14 21 51 7 58 14 70
27 49 8 -13 10 -12 11 3 1 17 4 29 9 45 1 4 2 11 1 15 -1 5 3 6 9 2 6 -3 8
-11 5 -16 -4 -5 1 -9 9 -9 8 0 23 -8 32 -18 16 -15 17 -15 12 0 -4 10 -1 19 7
22 19 7 25 -5 19 -38 -3 -19 -1 -25 7 -21 8 6 9 -26 4 -120 -4 -85 -3 -125 4
-121 6 4 8 13 5 20 -3 8 -1 17 5 21 8 4 11 -19 10 -72 -1 -43 -4 -66 -6 -50
-8 53 -21 26 -19 -40 1 -38 -2 -76 -7 -86 -5 -10 -7 -21 -4 -23 8 -9 57 19 57
33 0 7 7 14 15 14 8 1 20 3 25 4 6 1 17 3 25 4 19 1 19 31 -1 59 -8 12 -12 22
-7 22 15 0 31 -15 34 -33 4 -15 7 -15 31 8 15 14 34 25 42 25 8 0 30 9 50 20
l34 21 20 -21 c17 -19 23 -20 41 -8 12 7 24 24 28 38 8 33 29 64 37 52 3 -5
-1 -18 -9 -28 -9 -11 -14 -42 -15 -76 l0 -58 48 -30 c57 -36 108 -55 185 -70
32 -7 56 -14 53 -17 -3 -3 9 -17 25 -30 16 -14 36 -38 45 -54 14 -28 17 -29
62 -23 39 5 51 2 70 -16 23 -22 29 -40 13 -40 -6 0 -13 5 -16 10 -3 6 -25 10
-48 9 l-42 -1 35 -10 c53 -15 64 -27 45 -48 -12 -13 -13 -20 -5 -25 15 -9 16
-8 45 61 21 50 24 55 24 29 0 -16 -6 -84 -14 -150 -8 -66 -15 -128 -15 -137 0
-14 -8 -18 -34 -18 -30 0 -35 4 -39 28 -2 15 -3 12 -2 -8 4 -56 30 -133 79
-235 43 -89 73 -175 81 -235 1 -13 8 -26 14 -28 6 -2 11 -9 11 -16 0 -7 6 -24
13 -39 12 -26 15 -27 93 -27 l80 0 13 105 c7 58 16 105 21 105 4 0 13 -21 20
-47 8 -27 19 -52 27 -56 16 -10 17 -44 1 -49 -6 -2 0 -15 16 -31 23 -24 35
-27 89 -27 56 0 63 2 64 21 2 17 -1 18 -13 9 -10 -9 -14 -9 -14 -1 0 6 5 12
10 12 6 1 15 2 21 3 5 0 19 12 30 26 16 20 18 21 10 4 -6 -12 -7 -25 -3 -29 4
-5 2 -5 -5 -1 -6 3 -14 2 -17 -3 -7 -10 16 -21 45 -21 11 0 18 -4 15 -8 -2 -4
27 -9 66 -11 l70 -2 -5 43 -6 43 11 -43 11 -42 248 0 c215 0 249 2 249 15 0
20 54 20 74 0 11 -12 42 -15 140 -15 77 0 126 4 126 10 0 13 37 13 45 0 4 -7
753 -10 2216 -10 l2209 0 0 1605 0 1605 -1847 0 c-1061 0 -1842 -4 -1834 -9
11 -7 9 -10 -7 -15 -14 -5 -19 -13 -15 -24 4 -13 2 -12 -10 3 -17 20 -17 20
-23 -1 -4 -16 -13 -21 -35 -20 -16 1 -31 7 -34 14 -2 6 -9 12 -15 12 -6 0 -9
-4 -6 -9 7 -11 -141 -8 -151 3 -4 5 7 7 25 4 17 -2 32 -2 32 1 0 3 24 7 53 9
29 2 59 9 67 18 13 13 -116 14 -1103 12 -894 -2 -1117 -5 -1117 -15 0 -19 -27
-16 -34 3 -5 13 -22 15 -105 12 -55 -1 -103 -6 -107 -10 -4 -5 1 -17 11 -28
20 -22 15 -40 -29 -95 -27 -34 -43 -30 -82 20 -23 31 -26 40 -16 56 7 10 12
28 12 39 0 16 -7 20 -31 20 -26 0 -29 -2 -20 -14 7 -8 11 -32 9 -52 -4 -56
-37 -72 -102 -53 -27 8 -59 25 -72 38 l-24 24 0 -26 c0 -31 13 -40 51 -39 26
1 27 -1 16 -19 -6 -10 -19 -19 -28 -19 -20 0 -49 31 -49 53 0 17 -48 67 -65
67 -6 0 -16 9 -22 20 -12 18 -25 19 -180 19 -93 0 -229 -4 -303 -9 -74 -4
-139 -5 -145 0 -8 6 -631 7 -1567 2 -46 -1 -58 -4 -58 -16 0 -11 -9 -16 -30
-16 -38 0 -40 20 -2 21 18 1 13 4 -18 10 -66 11 -270 11 -270 -1 0 -5 -7 -10
-15 -10 -8 0 -15 5 -15 10 0 6 -70 10 -190 10 -165 0 -194 -2 -222 -18 -33
-19 -58 -19 -58 -1 0 6 5 7 12 3 7 -4 8 -3 4 4 -5 9 -474 12 -1837 12 l-1829
0 0 -1605z m5350 1575 c0 -5 -13 -10 -30 -10 -16 0 -30 5 -30 10 0 6 14 10 30
10 17 0 30 -4 30 -10z m885 0 c-3 -5 -19 -10 -36 -10 -16 0 -29 5 -29 10 0 6
16 10 36 10 21 0 33 -4 29 -10z m445 0 c0 -5 -13 -10 -30 -10 -16 0 -30 5 -30
10 0 6 14 10 30 10 17 0 30 -4 30 -10z m880 0 c0 -5 -13 -10 -30 -10 -16 0
-30 -4 -30 -9 0 -6 -9 -9 -20 -8 -23 1 -28 17 -5 17 8 0 15 5 15 10 0 6 16 10
35 10 19 0 35 -4 35 -10z m390 1 c0 -21 -31 -29 -120 -31 -52 -1 -106 -2 -120
-2 -47 -1 -60 2 -60 13 0 7 35 10 103 9 157 -3 189 -1 182 10 -3 6 -1 10 4 10
6 0 11 -4 11 -9z m487 -4 c3 -4 -8 -7 -25 -7 -18 0 -32 4 -32 9 0 11 46 8 57
-2z m443 9 c0 -8 -61 -12 -66 -4 -3 4 11 8 30 8 20 0 36 -2 36 -4z m407 -2
c-3 -3 -12 -4 -19 -1 -8 3 -5 6 6 6 11 1 17 -2 13 -5z m-3504 -11 c-7 -2 -21
-2 -30 0 -10 3 -4 5 12 5 17 0 24 -2 18 -5z m3642 -3 c14 -6 0 -9 -45 -9 -45
0 -59 3 -45 9 11 5 31 9 45 9 14 0 34 -4 45 -9z m-5098 -14 c7 -7 3 -8 -52
-11 -22 -2 -60 -4 -85 -6 -48 -3 -74 6 -65 22 6 9 192 5 202 -5z m74 -9 c-5
-5 -22 -6 -38 -2 -25 7 -26 8 -8 15 26 9 60 1 46 -13z m774 13 c-3 -5 -12 -10
-18 -10 -7 0 -6 4 3 10 19 12 23 12 15 0z m1433 4 c41 -11 22 -19 -53 -21 -79
-2 -105 13 -32 20 23 2 47 4 52 5 6 1 20 -1 33 -4z m741 -3 c56 -1 28 -12 -47
-18 -79 -6 -129 5 -77 17 17 4 44 6 60 4 17 -1 45 -3 64 -3z m66 -1 c3 -5 -1
-10 -10 -10 -9 0 -13 5 -10 10 3 6 8 10 10 10 2 0 7 -4 10 -10z m-2890 -10 c3
-5 -1 -10 -9 -10 -9 0 -16 5 -16 10 0 6 4 10 9 10 6 0 13 -4 16 -10z m1885 -1
c0 -4 -13 -7 -29 -6 -16 1 -27 5 -25 8 6 10 54 8 54 -2z m40 7 c0 -11 -19 -15
-25 -6 -3 5 1 10 9 10 9 0 16 -2 16 -4z m1805 -6 c3 -5 -3 -10 -14 -10 -12 0
-21 5 -21 10 0 6 6 10 14 10 8 0 18 -4 21 -10z m-3768 -6 c-3 -3 -12 -4 -19
-1 -8 3 -5 6 6 6 11 1 17 -2 13 -5z m3850 0 c-3 -3 -12 -4 -19 -1 -8 3 -5 6 6
6 11 1 17 -2 13 -5z m-4163 -103 c14 -12 17 -12 11 -2 -5 8 6 5 24 -8 18 -13
35 -20 38 -17 8 7 89 -39 120 -68 24 -22 30 -51 13 -61 -5 -3 -6 -15 -1 -28
12 -32 -5 -42 -71 -45 -49 -1 -58 1 -63 19 -4 11 -9 18 -12 15 -3 -2 -15 4
-26 15 -16 14 -23 16 -29 7 -7 -12 -12 -4 -9 15 0 4 -4 7 -11 7 -6 0 -8 3 -5
7 4 3 -1 12 -11 20 -15 12 -15 12 0 7 13 -4 15 -1 11 15 -3 11 -9 18 -14 15
-5 -3 -13 6 -19 20 -6 17 -18 26 -32 27 -18 1 -19 2 -5 6 15 4 16 7 5 21 -10
12 -10 14 0 8 6 -4 12 -3 12 3 0 6 7 8 15 5 18 -7 20 12 3 20 -7 3 -2 3 12 0
14 -4 34 -14 44 -23z m4442 -59 c-10 -2 -22 0 -28 6 -6 6 0 7 19 4 21 -5 23
-7 9 -10z m922 -15 c34 -31 26 -42 -9 -13 -17 14 -37 26 -45 26 -8 0 -14 5
-14 11 0 15 41 1 68 -24z m-3981 9 c-20 -8 -44 -19 -52 -26 -8 -7 -15 -9 -15
-5 0 16 47 44 75 44 30 0 30 0 -8 -13z m1303 2 c-14 -5 -34 -15 -45 -20 -20
-11 -20 -11 -1 11 11 12 30 21 45 20 l26 0 -25 -11z m486 2 c42 -16 23 -21
-21 -5 -22 8 -32 14 -23 15 9 0 29 -5 44 -10z m409 0 c-3 -5 -12 -7 -20 -3
-21 7 -19 13 6 13 11 0 18 -4 14 -10z m50 -18 c-3 -3 -11 0 -18 7 -9 10 -8 11
6 5 10 -3 15 -9 12 -12z m885 -12 c18 -17 30 -34 26 -37 -4 -4 -23 10 -44 30
-44 44 -28 50 18 7z m-3175 -41 c-10 -15 -25 -10 -19 6 4 8 10 12 15 9 5 -3 7
-10 4 -15z m868 6 c-3 -9 -8 -14 -10 -11 -3 3 -2 9 2 15 9 16 15 13 8 -4z
m1137 -9 c0 -3 -4 -8 -10 -11 -5 -3 -10 -1 -10 4 0 6 5 11 10 11 6 0 10 -2 10
-4z m102 -3 c-18 -2 -30 -8 -27 -13 3 -5 1 -12 -5 -15 -6 -4 -9 -1 -8 6 2 7
-10 16 -27 20 -21 5 -10 7 35 6 36 0 50 -2 32 -4z m-2308 -20 c23 -2 60 -5 84
-6 34 -1 41 -4 37 -17 -3 -10 0 -17 9 -17 8 0 12 6 9 12 -4 12 20 20 101 32
25 3 36 2 32 -5 -9 -15 14 -20 52 -11 24 5 32 4 32 -7 0 -21 28 -17 35 5 7 24
65 23 92 -2 11 -9 23 -14 27 -10 4 4 11 2 15 -6 7 -10 15 -10 41 4 18 9 41 14
52 12 15 -4 17 -3 8 8 -13 16 14 29 38 17 9 -4 55 -7 102 -6 72 1 87 -2 101
-17 9 -11 22 -19 28 -19 7 0 9 -6 6 -12 -4 -7 1 -4 9 6 9 11 16 14 16 8 0 -7
5 -12 10 -12 6 0 10 9 10 20 0 23 10 26 28 8 9 -9 15 -9 24 0 14 14 32 16 23
2 -11 -18 43 -23 67 -6 28 20 49 21 42 2 -6 -15 43 -29 52 -15 3 5 10 9 15 9
6 0 7 -4 4 -10 -3 -5 -1 -10 4 -10 6 0 11 5 11 11 0 5 6 7 13 3 8 -5 7 -2 -2
9 -20 25 -11 28 45 18 27 -5 52 -7 55 -5 4 2 9 -5 12 -15 7 -28 47 -30 74 -3
26 26 53 31 32 6 -11 -14 -10 -18 6 -27 50 -29 263 -27 290 3 13 14 12 16 -8
15 -12 0 -23 5 -25 10 -5 15 23 29 41 22 14 -5 16 -24 15 -112 l0 -107 -24 5
c-32 6 -31 -11 1 -23 22 -8 24 -13 15 -30 -6 -11 -15 -20 -20 -20 -23 0 -60
21 -60 34 0 18 -16 29 -30 21 -7 -4 -7 -13 0 -26 8 -13 7 -19 0 -19 -6 0 -8
-4 -5 -10 7 -12 -1 -12 -44 -4 -17 4 -31 11 -31 16 0 5 4 7 9 3 5 -3 12 -1 15
4 3 5 -7 8 -23 7 -17 -1 -28 2 -25 6 3 4 1 8 -5 8 -5 0 -13 -9 -16 -21 -6 -17
-12 -19 -33 -14 -15 3 -32 13 -38 21 -19 24 -25 15 -8 -11 13 -19 14 -28 5
-39 -14 -17 -8 -21 42 -30 48 -9 75 8 52 31 -19 18 -19 30 -1 30 8 0 14 -5 13
-11 -1 -5 4 -10 12 -11 8 0 16 -6 19 -14 3 -8 0 -11 -7 -7 -18 11 -13 -20 6
-35 10 -8 14 -9 10 -2 -5 8 1 11 20 10 20 -2 28 -8 28 -22 0 -29 -13 -44 -36
-40 -10 2 -19 0 -19 -4 0 -13 54 -24 58 -13 2 6 11 9 20 7 9 -1 11 0 4 2 -15
5 -12 38 3 38 6 0 16 4 23 8 8 5 11 4 10 -4 -5 -21 23 -22 29 0 3 12 8 21 12
21 4 0 6 16 5 35 -2 19 0 35 4 35 5 0 8 -54 9 -120 0 -66 3 -123 6 -126 3 -3
11 -3 17 1 10 6 11 28 10 158 0 15 4 27 9 27 13 0 40 -56 37 -77 -2 -10 -1
-12 1 -5 3 6 9 12 14 12 5 0 23 10 39 22 31 23 41 52 15 42 -9 -4 -15 0 -15
10 0 9 7 16 16 16 9 0 14 6 12 13 -3 6 -10 12 -15 12 -22 0 -26 15 -9 28 16
12 16 14 3 26 -12 9 -21 10 -36 1 -40 -21 -91 13 -81 55 2 6 2 22 1 37 -1 24
4 29 41 39 28 7 38 14 28 18 -8 3 -16 13 -18 21 -2 8 -8 17 -13 18 -5 2 -6 9
-2 15 4 6 0 8 -10 4 -11 -4 -15 0 -14 12 1 16 5 17 24 8 12 -5 20 -14 17 -18
-2 -5 1 -17 8 -28 9 -15 20 -19 43 -16 16 2 24 2 18 -1 -7 -3 -13 -12 -13 -19
0 -18 18 -23 59 -17 29 4 33 3 28 -11 -5 -12 -1 -17 13 -17 11 0 19 5 18 11
-2 6 3 14 11 17 8 3 11 0 7 -7 -7 -11 10 -15 47 -11 11 1 21 -7 24 -20 6 -23
24 -22 31 1 3 11 2 11 -7 -1 -6 -8 -11 -10 -11 -4 0 17 45 43 59 35 7 -5 39
-6 72 -4 32 2 59 0 59 -5 0 -5 7 -9 15 -9 8 0 13 3 10 5 -8 8 37 35 62 38 13
2 23 -2 23 -8 0 -6 7 -19 15 -28 13 -14 13 -17 0 -17 -8 0 -12 4 -9 8 6 10
-15 23 -23 15 -13 -13 21 -56 43 -56 13 0 26 -4 29 -10 3 -5 -3 -10 -14 -10
-19 0 -27 -16 -22 -43 1 -5 -3 -6 -9 -2 -6 3 -8 11 -5 16 4 5 -3 9 -14 9 -16
0 -20 -5 -17 -22 4 -29 -35 -62 -84 -72 -8 -2 -22 -6 -31 -10 -9 -4 -22 -6
-29 -4 -7 2 -14 -2 -17 -8 -3 -10 67 -30 90 -25 4 0 7 -4 7 -10 0 -5 4 -8 9
-4 6 3 13 -1 18 -8 4 -7 17 -17 28 -20 19 -7 19 -6 2 7 -18 14 -18 15 2 26 16
8 21 8 19 -1 -2 -6 3 -14 10 -16 6 -3 12 0 12 5 0 6 9 8 20 5 12 -3 22 1 26
10 3 9 12 13 20 10 8 -3 14 -1 14 5 0 12 18 11 39 -2 10 -6 12 -5 7 2 -10 16
7 15 23 0 11 -11 12 -10 6 2 -6 11 -3 10 12 -2 11 -10 26 -18 34 -18 12 0 11
2 -1 10 -11 7 0 10 40 11 30 1 58 1 61 1 4 -1 24 -2 45 -3 22 -1 47 -4 58 -6
32 -9 -2 -21 -45 -17 -30 3 -39 0 -39 -11 0 -21 -26 -19 -40 3 -11 16 -11 16
-6 0 4 -13 -1 -18 -17 -19 -44 -2 -50 -4 -54 -16 -3 -7 0 -13 5 -13 6 0 18 -3
28 -7 11 -4 15 -3 11 5 -4 6 1 12 10 14 31 6 73 -4 73 -17 0 -8 9 -17 20 -20
11 -3 20 -12 20 -20 0 -18 60 -8 78 13 7 10 11 12 8 6 -3 -6 1 -20 9 -30 13
-17 14 -18 15 -1 0 17 30 25 30 8 0 -19 -27 -29 -72 -27 -40 2 -46 0 -45 -16
1 -19 4 -20 77 -20 63 0 64 0 50 17 -10 12 -10 15 1 15 9 0 10 3 4 8 -5 4 -11
17 -12 30 l-3 23 22 -20 c18 -17 19 -23 8 -36 -7 -8 -10 -18 -7 -21 3 -4 41
-9 84 -11 87 -6 91 -6 183 1 37 3 69 1 77 -5 7 -6 18 -7 25 -2 7 4 67 9 133
10 66 1 197 4 290 7 143 5 167 3 153 -8 -24 -18 -23 -26 2 -21 13 2 20 -2 20
-11 0 -12 -13 -19 -23 -11 -2 1 -11 -4 -19 -10 -24 -20 -139 -14 -161 9 -21
22 -59 25 -51 4 3 -8 -3 -19 -13 -24 -28 -15 -1430 -31 -1453 -17 -19 11 -10
22 14 18 13 -3 27 0 30 6 4 6 18 11 32 11 35 0 32 30 -3 31 -16 1 -32 1 -36 0
-5 -1 -47 -2 -93 -3 -46 -1 -84 -3 -84 -6 0 -2 28 -16 63 -32 34 -16 55 -30
47 -31 -8 -1 -53 -3 -100 -5 -93 -4 -138 6 -165 36 -18 19 -17 20 6 20 20 1
21 2 7 10 -20 12 -183 18 -194 8 -11 -11 18 -40 35 -35 14 3 16 -8 13 -87 -2
-60 0 -88 7 -81 5 6 11 24 13 40 3 29 5 30 63 33 128 7 552 11 593 6 32 -4 42
-9 38 -20 -7 -19 4 -18 19 2 10 15 70 16 593 18 319 1 589 -2 599 -5 10 -4 13
-8 7 -8 -6 -1 -11 -8 -11 -16 0 -11 4 -12 13 -4 8 7 14 7 19 -1 3 -6 10 -8 15
-5 4 3 13 -2 20 -10 11 -13 4 -15 -51 -13 -107 3 -1322 -22 -1327 -27 -3 -3
46 -5 108 -5 86 0 111 -3 103 -11 -8 -8 -63 -14 -145 -16 -155 -5 -174 -7
-170 -19 2 -5 12 -8 22 -6 27 4 25 -7 -2 -18 -22 -8 -22 -9 5 -9 18 -1 27 4
27 15 0 8 5 12 10 9 6 -4 7 -12 3 -18 -4 -7 0 -6 10 2 9 7 17 9 17 3 0 -12 59
-22 66 -10 3 5 10 5 16 2 7 -5 4 -12 -7 -21 -14 -9 -15 -13 -4 -13 12 0 12 -2
-1 -10 -24 -16 -32 -12 -24 12 6 21 6 22 -12 8 -31 -24 -33 -31 -19 -71 12
-33 12 -37 -1 -32 -8 3 -22 2 -31 -2 -19 -7 -91 -17 -130 -17 -13 0 -21 -3
-19 -7 2 -3 -31 -6 -75 -6 -43 -1 -74 2 -68 6 8 5 8 8 0 13 -6 4 -14 1 -17 -7
-3 -8 -13 -14 -22 -12 -9 1 -25 -4 -34 -13 -10 -8 -18 -11 -18 -7 0 5 -7 0
-16 -11 -15 -18 -15 -17 -1 6 9 14 21 24 27 22 6 -1 9 2 6 7 -4 5 -16 7 -29 5
-12 -3 -29 -6 -37 -7 -8 -1 -26 -8 -39 -16 -13 -7 -21 -8 -17 -2 7 11 -1 13
-61 15 -24 1 -29 -2 -21 -11 7 -9 7 -13 -1 -13 -6 0 -11 -4 -11 -9 0 -5 10 -7
21 -4 16 4 20 2 17 -8 -3 -8 -13 -13 -23 -11 -13 3 -16 -1 -12 -13 9 -23 -39
-96 -58 -89 -8 4 -15 10 -15 14 0 4 -10 7 -22 6 -23 -1 -68 36 -68 57 0 8 3 8
8 2 9 -13 32 -17 32 -6 0 5 -6 11 -12 14 -10 3 -10 9 -1 25 10 16 9 23 -1 31
-19 16 -51 -10 -42 -34 5 -13 3 -15 -6 -8 -14 10 -41 12 -46 3 -6 -9 10 -40
18 -35 15 10 40 -20 34 -42 -8 -29 -40 -39 -59 -19 -15 14 -50 12 -41 -3 10
-16 -48 -9 -84 9 -38 19 -44 19 -112 6 -91 -18 -168 -18 -175 0 -5 13 -43 13
-103 -1 -14 -3 -40 -6 -57 -7 -18 -1 -33 -5 -33 -10 0 -7 -40 -6 -60 2 -3 1
-9 2 -15 0 -5 -1 -4 4 3 11 6 7 12 21 12 31 0 10 7 18 15 18 20 0 19 -29 -2
-37 -15 -6 -14 -7 3 -14 25 -9 76 21 71 42 -2 9 2 16 9 16 8 0 14 -4 14 -9 0
-13 30 -9 35 5 4 8 22 11 57 8 43 -3 50 -1 45 13 -5 12 -1 15 18 14 13 -1 21
-6 19 -10 -3 -5 -10 -5 -16 -2 -7 4 -8 2 -4 -4 7 -12 36 -5 36 9 0 5 9 9 21 9
11 0 17 -5 14 -10 -4 -6 -11 -7 -17 -4 -7 4 -8 2 -4 -4 11 -18 49 5 42 24 -3
9 -1 12 4 9 6 -4 9 -14 8 -23 -3 -18 50 -33 106 -29 19 2 33 0 30 -5 -10 -15
14 -8 27 9 10 11 10 14 1 9 -8 -5 -11 -1 -9 15 3 19 10 23 38 23 22 1 40 -6
51 -19 10 -11 17 -16 18 -11 0 6 6 1 14 -9 12 -17 13 -16 12 8 -1 14 -6 30
-10 34 -5 4 -6 2 -2 -4 9 -15 -10 -18 -19 -3 -4 6 7 13 25 16 30 7 33 16 5 20
-8 1 -15 -1 -15 -5 0 -4 -14 -8 -31 -9 -19 -2 -28 2 -24 8 4 6 -8 10 -30 10
-22 0 -34 4 -30 10 3 5 -1 10 -10 10 -9 0 -14 -4 -11 -8 2 -4 -7 -9 -20 -10
-17 -1 -23 2 -19 11 4 6 -1 3 -9 -7 -9 -11 -16 -15 -16 -10 0 15 -28 13 -34
-2 -3 -7 2 -15 10 -18 12 -5 12 -9 2 -25 -12 -19 -28 -19 -28 0 0 6 4 8 9 4 5
-3 12 -1 15 4 3 5 -1 12 -10 15 -8 3 -13 10 -10 15 8 13 -16 20 -35 10 -9 -5
-30 -4 -47 0 -21 6 -38 5 -56 -4 -22 -12 -26 -12 -26 1 0 8 -4 12 -10 9 -5 -3
-10 -2 -10 4 0 6 14 18 31 27 23 11 30 21 26 35 -3 10 -2 19 1 19 13 0 62 -47
56 -53 -3 -3 3 -3 14 0 11 2 23 0 26 -6 4 -6 14 -11 22 -11 11 0 10 5 -6 22
-11 12 -35 44 -53 70 -21 31 -37 46 -47 42 -12 -4 -13 -3 -2 7 6 7 12 20 12
30 0 21 -106 29 -383 29 -110 0 -198 2 -196 4 8 7 265 16 453 16 104 0 186 3
182 8 -4 4 -152 7 -329 8 -576 1 -607 2 -607 19 0 9 -9 15 -21 15 -18 0 -19
-2 -9 -15 11 -13 -9 -14 -166 -10 -210 7 -224 8 -224 17 0 4 -12 3 -26 -2 -25
-10 -77 -4 -70 9 2 3 -10 6 -28 6 -19 0 -33 -5 -33 -12 0 -7 4 -10 8 -7 4 2
10 0 14 -5 3 -6 -11 -10 -34 -9 -40 0 -62 21 -43 40 13 13 215 13 220 -1 2 -6
9 -8 15 -4 6 4 45 8 87 10 41 1 75 3 75 4 0 1 512 12 578 12 26 0 47 4 47 8 0
5 33 5 73 2 39 -4 185 -6 322 -4 159 2 260 -1 277 -8 16 -6 30 -6 33 -1 7 11
214 9 221 -2 10 -16 24 3 24 33 0 29 -1 29 -57 29 -32 0 -103 1 -158 2 -55 1
-504 0 -997 -1 -493 -2 -903 1 -910 5 -17 11 -66 17 -53 7 24 -19 37 -62 32
-109 -4 -36 -1 -54 10 -66 18 -20 20 -67 4 -97 -6 -11 -11 -29 -11 -40 0 -11
-5 -23 -12 -27 -8 -5 -9 -2 -5 10 4 9 3 15 -2 11 -7 -4 -8 -70 -1 -70 4 0 4
-65 0 -66 -3 0 -12 -2 -20 -4 -13 -2 -15 9 -12 64 3 57 1 69 -17 85 -22 20
-28 51 -11 61 6 3 10 14 10 24 0 10 7 25 16 32 15 12 14 15 -2 29 -20 17 -32
46 -14 35 5 -3 10 -3 11 2 0 4 2 29 4 55 3 34 0 48 -11 52 -8 3 -14 15 -14 27
0 20 4 21 45 16 24 -4 46 -3 49 2 3 5 16 9 28 9 31 2 51 6 66 15 6 5 15 6 20
4 4 -3 16 -1 27 4 13 6 -12 8 -68 6 -48 -1 -87 1 -87 6 0 4 21 8 48 8 95 3
141 13 158 37 12 15 12 15 8 -4 -5 -20 -3 -21 43 -14 26 4 52 6 56 3 4 -3 15
1 24 9 14 11 17 11 21 -1 4 -11 6 -11 13 0 7 12 9 12 9 0 0 -11 3 -11 15 -1 9
7 15 8 15 2 0 -5 23 -10 50 -10 32 -1 50 3 50 11 0 9 2 9 8 0 4 -6 25 -12 47
-12 22 0 70 -2 107 -5 47 -3 70 -1 78 9 8 10 2 14 -27 20 -24 4 -39 3 -41 -4
-4 -13 -39 -15 -46 -2 -3 5 -16 7 -29 5 -12 -2 -16 -2 -9 2 6 3 12 15 13 27
l0 22 9 -21 c12 -30 47 -37 63 -13 8 10 17 16 20 12 4 -3 7 1 7 10 0 22 -5 21
-29 -5 l-20 -21 4 22 c3 19 1 21 -17 15 -16 -5 -20 -3 -15 8 8 22 -51 17 -68
-5 -11 -16 -13 -16 -19 -2 -4 11 -2 14 7 9 7 -4 9 -3 4 2 -10 10 -14 11 -58
13 -25 1 -30 4 -25 17 5 14 4 15 -8 5 -10 -8 -16 -9 -21 -1 -3 5 1 13 9 16 9
3 14 9 12 13 -7 11 18 26 46 26 14 1 25 -3 22 -6 -2 -4 1 -11 7 -15 6 -3 15
-1 19 6 4 7 28 12 57 12 47 -1 51 1 51 24 0 13 -4 27 -9 30 -5 3 -9 0 -9 -5 0
-6 -5 -11 -11 -11 -6 0 -9 6 -6 13 2 7 21 12 45 12 36 0 42 -3 42 -21 0 -28
-10 -36 -27 -23 -10 9 -13 8 -13 -3 0 -15 3 -16 60 -21 19 -1 41 -6 49 -11 8
-5 16 -3 22 5 7 11 9 10 9 -3 0 -10 5 -18 10 -18 6 0 10 5 10 10 0 13 47 13
55 -1 4 -6 1 -10 -6 -8 -28 3 -39 -1 -39 -18 0 -14 -2 -15 -17 -1 -31 26 -53
30 -53 9 0 -20 -19 -31 -51 -31 -21 0 -25 -15 -7 -26 7 -5 9 -2 4 7 -6 10 -4
10 6 -1 15 -17 48 -23 48 -8 0 5 4 7 8 4 4 -2 14 -1 22 5 10 6 11 9 3 9 -7 0
-13 9 -13 21 0 11 5 17 10 14 6 -4 8 -11 4 -16 -3 -5 0 -8 7 -7 7 2 13 -4 14
-12 0 -9 9 -15 23 -14 27 1 29 -12 2 -19 -11 -3 -20 -1 -20 3 0 5 -14 4 -31
-2 -18 -6 -28 -15 -25 -24 3 -7 0 -15 -7 -18 -9 -3 -8 -7 3 -15 20 -14 31 -4
26 23 -3 19 -1 23 14 19 16 -4 17 -8 7 -24 -14 -22 -4 -34 20 -24 28 13 43 14
43 4 0 -4 7 -6 15 -3 8 4 15 13 15 20 0 20 -27 29 -45 14 -11 -9 -15 -9 -15
-1 0 6 14 14 30 18 17 3 33 10 37 16 4 6 1 7 -8 2 -12 -8 -12 -6 0 8 7 9 10
17 6 17 -4 0 -3 6 3 13 8 10 5 13 -14 15 -15 1 -23 -2 -19 -8 3 -6 1 -10 -4
-10 -17 0 -13 27 5 34 9 4 14 13 10 21 -3 9 0 15 9 15 8 0 15 -5 15 -11 0 -6
9 -9 20 -6 11 3 20 1 20 -5 0 -6 9 -8 19 -5 12 3 22 -1 26 -11 3 -8 8 -12 11
-10 3 3 20 2 39 -2 43 -10 56 3 43 42 -8 22 -15 28 -30 25 -11 -3 -21 0 -24 8
-3 8 -12 11 -20 8 -8 -3 -12 -8 -9 -12 2 -4 -2 -8 -9 -8 -8 0 -12 6 -9 14 4 9
0 11 -11 7 -9 -3 -16 -10 -16 -14 0 -4 -7 -10 -15 -14 -9 -3 -15 0 -15 10 0 8
5 12 11 9 6 -4 5 2 -3 14 -7 12 -17 21 -22 21 -4 0 -3 -7 4 -15 9 -11 9 -15 1
-15 -7 0 -9 -4 -6 -10 3 -5 2 -10 -3 -10 -6 0 -13 8 -17 18 -6 16 -7 16 -19 0
-7 -10 -16 -15 -19 -11 -4 3 -29 6 -57 6 -27 -1 -50 4 -50 9 0 5 -9 6 -20 3
-24 -8 -24 13 0 32 13 10 11 12 -11 18 -15 4 -31 16 -37 28 -10 22 -10 22 -20
-5 -8 -18 -18 -26 -32 -25 -11 1 -20 5 -20 9 0 4 -8 5 -17 2 -16 -5 -16 -4 1
10 10 8 23 13 27 10 5 -3 14 -2 21 2 7 5 5 11 -7 21 -11 7 -13 13 -7 13 7 0
12 6 12 14 0 8 5 18 11 22 8 4 9 0 4 -15 -8 -27 11 -28 25 -1 13 25 36 26 49
3 10 -17 10 -17 11 0 0 9 -5 17 -11 17 -6 0 -9 8 -7 18 2 9 11 16 21 16 9 -1
29 -2 43 -3 16 -1 24 -6 21 -13 -2 -7 3 -25 11 -40 13 -23 17 -24 30 -12 12
13 16 13 28 -3 10 -14 17 -16 30 -8 9 6 16 14 15 18 -2 10 29 41 43 43 6 0 19
2 29 2 9 1 17 10 17 20 0 17 -11 19 -145 18 -87 -1 -147 3 -150 9 -3 6 -7 5
-11 -2 -4 -9 -11 -10 -24 -3 -10 5 -51 7 -92 4 -112 -8 -121 -8 -150 -1 -19 5
-28 4 -28 -5 0 -9 -3 -9 -12 0 -7 7 -23 12 -37 12 -18 0 -22 -3 -13 -9 11 -7
11 -9 -2 -14 -11 -4 -16 -1 -16 10 0 13 -5 12 -22 -7 -20 -21 -23 -22 -26 -7
-2 9 -10 17 -18 17 -8 0 -14 3 -14 8 0 9 -67 12 -244 10 -53 -1 -91 2 -93 8
-2 6 -18 8 -35 6 -27 -4 -29 -3 -18 9 7 8 20 15 29 16 9 0 26 3 39 6 13 4 20
2 17 -3 -3 -6 4 -10 17 -10 13 0 42 -2 66 -4 23 -1 42 1 42 6 0 5 19 6 43 4
29 -4 50 -1 63 8 13 10 23 11 31 4 7 -6 13 -7 13 -2 0 5 5 2 10 -6 6 -10 10
-11 10 -2 0 6 7 12 15 12 8 0 15 6 16 13 0 6 5 2 11 -10 6 -13 18 -23 27 -23
14 0 14 2 1 11 -11 8 -12 12 -2 16 6 2 9 9 6 15 -4 6 1 6 13 -1 15 -7 25 -6
40 4 23 16 34 11 26 -13 -5 -12 -1 -12 19 4 14 10 23 23 20 28 -3 5 1 6 8 1 7
-4 31 -10 54 -12z m2744 -3 c3 -9 -1 -11 -12 -7 -10 4 -14 3 -11 -3 3 -5 -4
-8 -15 -7 -10 1 -22 7 -25 15 -2 7 -1 11 3 8 4 -2 14 -1 22 4 18 12 32 8 38
-10z m-1555 3 c3 -5 -6 -8 -19 -8 -13 0 -24 3 -24 8 0 4 9 7 19 7 11 0 22 -3
24 -7z m691 -22 c-4 -3 -9 0 -11 7 -3 6 -10 9 -15 6 -7 -4 -8 -2 -4 5 6 9 11
9 22 0 8 -6 12 -15 8 -18z m371 11 c-3 -3 -11 0 -18 7 -9 10 -8 11 6 5 10 -3
15 -9 12 -12z m126 -13 c-5 -13 -10 -19 -10 -12 -1 15 10 45 15 40 3 -2 0 -15
-5 -28z m74 20 c-27 -11 -55 -11 -55 0 0 5 17 9 38 9 28 0 32 -2 17 -9z
m-3110 -9 c3 -5 1 -10 -4 -10 -6 0 -11 5 -11 10 0 6 2 10 4 10 3 0 8 -4 11
-10z m2580 0 c-3 -5 -12 -10 -18 -10 -7 0 -6 4 3 10 19 12 23 12 15 0z m49 -6
c5 -13 4 -14 -7 -6 -8 7 -17 9 -20 5 -4 -3 -7 -1 -7 5 0 18 27 14 34 -4z m497
-6 c0 -10 2 -10 6 0 6 15 39 16 49 1 4 -7 0 -9 -14 -5 -11 4 -23 2 -27 -4 -10
-16 -45 -12 -45 5 0 18 30 20 31 3z m99 2 c0 -5 -7 -10 -16 -10 -8 0 -12 5 -9
10 3 6 10 10 16 10 5 0 9 -4 9 -10z m-142 -12 c-6 -18 -25 -20 -31 -3 -5 10 0
15 14 15 12 0 19 -5 17 -12z m-508 -13 c0 -8 -4 -15 -8 -15 -5 0 -9 7 -9 15 0
8 4 15 9 15 4 0 8 -7 8 -15z m316 -5 c0 -24 -12 -26 -34 -3 -16 16 -16 16 0
10 10 -3 20 -2 23 3 9 14 11 12 11 -10z m-2900 -19 c-3 -5 -17 -8 -31 -8 -14
0 -25 3 -25 8 0 5 14 9 31 9 16 0 28 -4 25 -9z m3974 -13 c0 -4 -9 -8 -20 -8
-11 0 -20 4 -20 9 0 6 9 9 20 8 11 -1 20 -5 20 -9z m-3603 -24 c-3 -3 -12 -4
-19 -1 -8 3 -5 6 6 6 11 1 17 -2 13 -5z m2383 -4 c0 -5 -7 -10 -16 -10 -8 0
-12 5 -9 10 3 6 10 10 16 10 5 0 9 -4 9 -10z m847 -16 c-3 -4 -14 -3 -24 0
-15 6 -15 8 -3 16 16 10 39 -4 27 -16z m-3972 -45 c11 -20 15 -50 13 -87 l-3
-57 35 3 c138 13 161 9 240 -39 41 -25 81 -44 88 -43 7 1 8 0 2 -3 -5 -2 -10
-13 -10 -23 0 -31 -28 -30 -65 3 -20 18 -42 32 -48 33 -7 0 -34 11 -61 23 -42
20 -59 22 -115 17 -36 -4 -91 -13 -121 -21 -30 -8 -62 -15 -70 -15 -26 0 -89
63 -94 94 -9 50 63 147 124 168 24 8 68 -19 85 -53z m4041 48 c4 -4 -4 -7 -19
-7 -14 0 -29 5 -32 10 -7 12 39 9 51 -3z m34 9 c0 -3 -4 -8 -10 -11 -5 -3 -10
-1 -10 4 0 6 5 11 10 11 6 0 10 -2 10 -4z m-3042 -31 c-3 -3 -9 2 -12 12 -6
14 -5 15 5 6 7 -7 10 -15 7 -18z m2722 3 c0 -6 6 -5 15 2 12 10 18 8 34 -11
11 -14 30 -23 46 -24 16 0 30 -6 32 -12 3 -7 -3 -13 -12 -13 -13 0 -16 -6 -12
-21 5 -18 2 -21 -23 -17 -16 2 -27 1 -25 -3 6 -9 -24 -21 -36 -13 -5 3 -10 -1
-11 -8 0 -7 -2 -20 -3 -28 -1 -8 3 -21 8 -28 7 -9 6 -11 -7 -6 -9 3 -16 10
-16 16 0 5 -5 6 -10 3 -6 -4 -21 0 -34 8 -15 10 -27 12 -39 5 -10 -5 -16 -6
-15 -1 2 4 -4 18 -13 30 -11 15 -19 19 -29 12 -13 -7 -13 -9 0 -9 25 -1 -11
-20 -37 -20 -13 0 -23 -6 -24 -12 0 -9 -2 -10 -5 -1 -3 6 -18 9 -35 6 -22 -3
-29 0 -29 11 0 9 7 16 15 16 8 0 15 4 15 9 0 5 14 8 30 7 36 -3 41 21 10 49
-11 10 -17 22 -14 27 4 6 -2 7 -15 3 -16 -5 -19 -3 -15 8 3 8 16 13 30 11 13
-1 24 2 24 8 0 7 5 7 13 1 6 -5 38 -8 70 -8 33 1 57 -3 57 -9 0 -6 7 -1 15 11
15 22 45 22 45 1z m-3085 -8 c3 -5 -1 -10 -10 -10 -9 0 -13 5 -10 10 3 6 8 10
10 10 2 0 7 -4 10 -10z m175 1 c0 -6 -4 -13 -10 -16 -5 -3 -10 1 -10 9 0 9 5
16 10 16 6 0 10 -4 10 -9z m550 -5 c0 -9 8 -13 23 -10 20 4 21 4 2 -5 -29 -14
-35 -13 -35 7 0 14 -2 15 -10 2 -5 -8 -10 -10 -10 -4 0 6 3 14 7 17 11 12 23
8 23 -7z m3090 10 c0 -3 -4 -8 -10 -11 -5 -3 -10 -1 -10 4 0 6 5 11 10 11 6 0
10 -2 10 -4z m-3384 -33 c-4 -4 -12 -1 -19 7 -9 10 -9 11 1 6 7 -4 12 -2 13 6
0 11 2 11 6 0 3 -7 2 -16 -1 -19z m3463 12 c32 -6 37 -13 22 -28 -11 -9 -14
-9 -18 1 -3 6 -9 10 -14 6 -5 -3 -9 0 -9 6 0 7 -7 7 -22 -1 -13 -6 -20 -8 -16
-4 4 5 3 14 -3 21 -11 13 -10 13 60 -1z m-3499 -30 c0 -7 5 -15 12 -17 8 -3 7
-11 -5 -28 l-17 -24 -1 24 c-1 14 -3 35 -4 47 -1 12 2 20 6 17 5 -3 9 -11 9
-19z m3573 5 c3 -11 1 -20 -4 -20 -5 0 -9 9 -9 20 0 11 2 20 4 20 2 0 6 -9 9
-20z m-3827 -17 c-3 -8 -6 -20 -6 -26 0 -7 -4 -6 -10 3 -7 12 -12 12 -28 -4
-11 -10 -23 -13 -26 -8 -3 5 1 15 9 22 8 7 12 17 8 23 -3 5 -1 7 5 3 6 -3 13
-2 17 3 9 15 37 0 31 -16z m3223 14 c8 -10 7 -14 -4 -14 -8 0 -16 6 -19 14 -3
7 -2 13 3 13 5 0 14 -6 20 -13z m-2932 -19 c-3 -8 -6 -5 -6 6 -1 11 2 17 5 13
3 -3 4 -12 1 -19z m-377 -21 c0 -5 -4 -5 -10 -2 -5 3 -10 14 -10 23 0 15 2 15
10 2 5 -8 10 -19 10 -23z m157 17 c0 -7 -4 -11 -8 -8 -4 2 -10 0 -14 -6 -3 -5
-1 -10 6 -10 8 0 9 -3 0 -13 -17 -21 -1 -28 25 -10 22 14 24 14 24 0 0 -9 -6
-19 -12 -24 -13 -8 -18 -9 -40 -12 -9 -1 -8 -4 2 -11 8 -5 26 -6 39 -3 17 4
22 2 17 -6 -9 -14 -66 -11 -66 4 0 5 -5 3 -10 -5 -6 -9 -10 -10 -10 -3 0 6 4
15 10 18 14 9 9 57 -9 79 -9 11 -11 16 -4 13 6 -4 14 -4 17 1 8 13 33 10 33
-4z m3098 6 c3 -5 1 -10 -4 -10 -6 0 -11 5 -11 10 0 6 2 10 4 10 3 0 8 -4 11
-10z m-435 -10 c0 -5 -2 -10 -4 -10 -3 0 -8 5 -11 10 -3 6 -1 10 4 10 6 0 11
-4 11 -10z m420 -39 c-4 -8 -24 -16 -45 -18 -31 -3 -36 -1 -33 14 2 10 12 17
21 17 10 -1 23 6 29 16 11 17 13 17 24 2 7 -10 9 -23 4 -31z m1563 31 c9 -10
20 -32 23 -49 5 -26 1 -37 -19 -57 -14 -14 -21 -28 -16 -31 5 -4 9 -14 9 -23
0 -18 10 -21 85 -25 22 -2 45 -6 52 -10 6 -4 13 -2 15 5 3 9 11 9 34 0 16 -6
38 -12 49 -14 11 -2 26 -9 33 -15 7 -7 22 -13 32 -13 10 0 35 -9 57 -19 21
-11 46 -22 55 -25 11 -3 15 -12 11 -25 -5 -20 -33 -30 -33 -12 0 5 -9 7 -20 4
-10 -3 -43 7 -72 21 -28 14 -58 26 -65 26 -8 0 -16 7 -19 15 -7 18 -89 21 -99
5 -4 -6 -15 -8 -25 -5 -10 3 -24 0 -31 -7 -8 -7 -33 -26 -55 -41 -23 -16 -61
-48 -84 -73 -22 -24 -48 -44 -56 -44 -23 0 -65 -47 -58 -64 3 -9 10 -14 14
-11 11 7 6 -20 -6 -36 -6 -8 -13 -21 -17 -30 -6 -17 -86 -61 -98 -54 -4 3 -2
19 4 36 11 27 10 32 -8 45 -12 9 -31 13 -47 10 -28 -6 -39 8 -33 40 2 11 4 24
5 29 1 6 5 1 10 -10 7 -17 9 -17 9 -2 1 13 10 17 36 17 49 0 48 0 68 17 9 9
17 26 17 38 0 12 9 30 20 40 11 10 20 21 20 25 0 15 -56 18 -82 5 -27 -13 -37
0 -13 17 18 13 -6 22 -26 10 -18 -12 -20 -11 -17 5 4 20 27 22 111 8 40 -7 50
-5 61 10 7 10 25 17 42 17 16 0 41 7 56 16 l26 15 -19 26 c-17 24 -30 85 -31
151 0 27 34 60 62 60 9 0 24 -8 33 -18z m-4881 -9 c10 -9 18 -21 18 -26 0 -6
-6 -3 -13 7 -7 9 -17 17 -22 16 -19 -4 -26 0 -20 10 9 14 16 13 37 -7z m318
-3 c6 -11 21 -20 33 -20 13 0 39 -8 60 -19 20 -10 34 -15 31 -10 -9 16 2 10
21 -11 18 -20 18 -20 -31 -13 -27 3 -55 12 -62 20 -17 16 -28 17 -44 0 -10
-11 -15 -11 -30 2 -16 14 -16 17 -2 32 14 16 14 18 -3 28 -16 9 -16 10 -1 11
10 0 22 -9 28 -20z m150 0 c0 -5 -7 -10 -15 -10 -8 0 -15 5 -15 10 0 6 7 10
15 10 8 0 15 -4 15 -10z m-280 -32 c0 -5 -6 -8 -14 -8 -9 0 -12 7 -9 21 4 16
8 17 14 7 5 -7 9 -16 9 -20z m2620 7 c0 -8 -2 -15 -4 -15 -2 0 -6 7 -10 15 -3
8 -1 15 4 15 6 0 10 -7 10 -15z m-545 -5 c3 -5 1 -10 -4 -10 -6 0 -11 5 -11
10 0 6 2 10 4 10 3 0 8 -4 11 -10z m-29 -12 c4 -6 3 -8 -3 -5 -6 4 -16 0 -23
-8 -13 -16 -35 -10 -24 6 3 5 9 7 14 4 5 -3 11 -1 15 5 8 13 12 13 21 -2z
m740 -23 c3 -17 -14 -19 -36 -5 -13 8 -12 10 3 10 9 0 17 5 17 12 0 15 13 1
16 -17z m-2805 1 c5 3 9 1 9 -4 0 -14 -28 -23 -35 -12 -4 6 -3 15 1 22 6 9 9
9 12 0 2 -7 8 -10 13 -6z m1744 4 c3 -6 -1 -7 -9 -4 -18 7 -21 14 -7 14 6 0
13 -4 16 -10z m-1586 -17 c14 10 14 10 3 -5 -8 -9 -11 -22 -7 -28 3 -6 -3 -10
-14 -10 -12 0 -21 5 -21 10 0 6 5 10 11 10 8 0 7 6 -2 18 -11 14 -11 15 1 5
11 -10 17 -10 29 0z m191 -3 c12 -7 10 -9 -8 -7 -12 0 -22 5 -22 9 0 11 12 10
30 -2z m3398 5 c-10 -10 -49 -14 -43 -4 4 5 16 9 27 9 12 0 19 -2 16 -5z
m-3688 -66 c0 6 5 11 11 11 5 0 7 -5 4 -10 -3 -6 2 -14 12 -18 10 -4 19 -14
21 -22 3 -11 -1 -11 -16 3 -23 21 -32 22 -32 3 0 -11 -7 -13 -29 -6 -16 4 -32
6 -35 2 -3 -3 -6 0 -6 6 0 7 -7 9 -17 5 -17 -6 -17 -6 -1 10 19 19 33 23 22 5
-4 -7 -3 -8 4 -4 15 9 4 36 -14 36 -8 0 -14 5 -14 10 0 6 20 -1 45 -16 25 -14
45 -21 45 -15z m41 28 c-1 -12 -15 -9 -19 4 -3 6 1 10 8 8 6 -3 11 -8 11 -12z
m2006 -6 c-1 -12 -8 -19 -18 -18 -19 1 -21 17 -4 29 17 13 24 9 22 -11z
m-2057 -1 c0 -5 -2 -10 -4 -10 -3 0 -8 5 -11 10 -3 6 -1 10 4 10 6 0 11 -4 11
-10z m735 -11 c-8 -12 -35 -12 -35 0 0 11 22 20 33 14 4 -2 5 -9 2 -14z m3982
-21 c-3 -7 -5 -2 -5 12 0 14 2 19 5 13 2 -7 2 -19 0 -25z m-4744 -55 c-3 -7
-6 -13 -8 -13 -2 0 -5 6 -8 13 -3 8 1 14 8 14 7 0 11 -6 8 -14z m217 7 c0 -5
-2 -10 -4 -10 -3 0 -8 5 -11 10 -3 6 -1 10 4 10 6 0 11 -4 11 -10z m-137 -7
c-7 -2 -21 -2 -30 0 -10 3 -4 5 12 5 17 0 24 -2 18 -5z m3187 -13 c9 0 9 -39
0 -41 -35 -5 -52 -4 -57 4 -3 6 -1 7 5 3 6 -3 16 2 21 13 6 11 8 21 3 24 -4 2
-1 2 6 0 8 -1 17 -3 22 -3z m47 3 c-4 -3 1 -12 11 -19 19 -15 5 -19 -17 -5
-12 8 -8 31 6 31 4 0 3 -3 0 -7z m413 -9 c0 -2 -11 -4 -25 -4 -14 0 -25 4 -25
9 0 4 11 6 25 3 14 -2 25 -6 25 -8z m-353 -9 c0 -8 -7 -15 -15 -15 -12 0 -12
3 -2 15 7 8 13 15 15 15 1 0 2 -7 2 -15z m76 -8 c-5 -8 -49 -5 -59 5 -3 4 10
6 29 5 19 -1 33 -5 30 -10z m164 -9 c-3 -8 -6 -5 -6 6 -1 11 2 17 5 13 3 -3 4
-12 1 -19z m-4945 -13 c5 -6 8 -6 8 2 0 7 12 10 31 8 53 -7 63 -14 96 -64 27
-42 30 -51 18 -61 -17 -14 -20 -50 -5 -50 18 0 39 -62 30 -86 -5 -12 -6 -25
-2 -29 4 -3 7 -26 7 -50 1 -25 4 -47 8 -51 3 -4 25 -8 48 -10 51 -4 74 -21 58
-41 -7 -7 -20 -11 -29 -8 -25 8 -47 -18 -44 -52 5 -42 14 -85 24 -108 16 -34
47 -169 42 -183 -2 -6 -8 -10 -13 -7 -5 4 -6 0 -3 -8 3 -9 -8 -25 -29 -41
l-34 -26 -55 24 c-31 14 -58 22 -62 19 -3 -3 -12 0 -20 6 -8 7 -20 10 -26 6
-5 -3 -10 0 -10 8 0 8 -9 22 -20 32 -21 19 -28 51 -8 39 7 -5 8 -3 3 6 -6 10
-11 9 -21 -5 -12 -16 -14 -15 -20 10 -6 25 -8 26 -17 10 -9 -18 -10 -18 -23 0
-8 10 -14 15 -14 11 0 -5 -7 -3 -15 4 -9 7 -18 10 -21 7 -4 -3 -20 7 -38 24
l-31 29 -20 -22 c-18 -20 -30 -24 -70 -19 -5 1 -3 5 5 11 12 8 12 10 -3 16 -9
3 -17 13 -17 21 0 8 -4 12 -9 9 -4 -3 -16 3 -26 14 -10 11 -24 20 -31 20 -8 0
-11 6 -7 17 4 10 2 14 -4 10 -7 -4 -6 11 3 40 8 25 14 57 14 70 0 12 6 23 13
23 8 0 7 4 -3 10 -13 8 -12 10 4 10 11 0 16 3 13 7 -4 3 -2 12 4 20 6 7 8 13
3 13 -5 0 -3 4 5 9 7 5 14 20 14 35 0 14 5 26 11 26 7 0 6 4 -2 9 -7 4 -15 23
-17 42 -3 19 -2 28 1 22 9 -21 21 -15 19 10 -1 12 5 28 14 35 9 8 10 11 4 7
-8 -4 -13 0 -13 11 0 12 6 15 25 12 13 -3 26 0 29 6 3 7 9 5 16 -6 6 -11 19
-15 34 -12 14 2 27 0 31 -6 3 -6 -1 -7 -9 -4 -9 3 -16 2 -16 -4 0 -6 8 -9 18
-7 12 2 16 10 14 31 -1 17 1 24 5 17 14 -20 73 -3 73 22 0 3 -6 3 -12 -1 -7
-3 -1 4 13 17 14 13 24 30 22 37 -3 6 0 12 5 12 6 0 9 13 7 30 -4 29 11 37 27
15z m5478 -15 c0 -5 -4 -10 -10 -10 -5 0 -10 5 -10 10 0 6 5 10 10 10 6 0 10
-4 10 -10z m186 -8 c-8 -7 -79 -10 -91 -3 -5 3 4 8 20 11 32 6 79 1 71 -8z
m816 11 c-6 -2 -10 -8 -7 -13 3 -4 -2 -10 -10 -14 -17 -6 -18 -4 -9 18 3 9 14
16 23 15 10 0 11 -2 3 -6z m-942 -12 c0 -5 -11 -8 -25 -8 -14 0 -25 3 -25 8 0
5 11 9 25 9 14 0 25 -4 25 -9z m-4607 -8 c-7 -2 -19 -2 -25 0 -7 3 -2 5 12 5
14 0 19 -2 13 -5z m2470 -48 c62 -32 63 -53 1 -36 -21 6 -48 8 -61 5 -14 -4
-23 -2 -23 5 0 6 4 11 9 11 4 0 6 12 3 26 -3 15 -1 25 4 23 5 -2 35 -17 67
-34z m3067 24 c0 -12 -19 -21 -30 -14 -6 4 -8 10 -6 14 7 10 36 10 36 0z
m-930 -16 c0 -5 -7 -16 -14 -26 -9 -11 -12 -39 -10 -85 4 -69 -7 -59 -21 21
-11 65 -21 40 -14 -35 8 -80 18 -120 28 -114 3 2 5 -17 5 -42 -1 -26 -5 -46
-10 -46 -12 2 -42 57 -37 67 2 4 -1 7 -6 7 -6 0 -11 17 -11 38 0 20 -5 44 -10
52 -7 10 -8 -84 -5 -281 5 -259 4 -297 -10 -309 -10 -8 -15 -9 -15 -1 0 6 -6
10 -12 9 -13 -3 -14 31 -17 299 -1 41 -5 52 -18 55 -15 3 -18 17 -19 101 0 71
-4 101 -14 107 -13 8 -17 76 -5 88 2 3 27 7 55 10 43 4 50 2 50 -13 0 -10 3
-15 8 -11 4 4 7 26 7 49 0 36 3 42 20 40 11 -1 24 5 28 13 8 14 47 20 47 7z
m715 -123 c-4 -14 -2 -20 8 -20 8 0 18 -7 21 -16 5 -13 4 -14 -7 -5 -12 9 -13
6 -9 -15 5 -25 3 -26 -22 -20 -16 4 -25 3 -22 -2 3 -6 -3 -12 -13 -15 -15 -3
-18 -1 -14 11 4 10 2 13 -5 8 -7 -4 -12 -3 -12 3 0 6 -7 8 -15 5 -10 -4 -15 0
-15 14 0 22 28 37 75 41 8 0 15 8 15 16 0 8 5 15 11 15 6 0 8 -9 4 -20z m45
10 c-8 -5 -19 -10 -25 -10 -5 0 -3 5 5 10 8 5 20 10 25 10 6 0 3 -5 -5 -10z
m-5190 -29 c0 -6 -5 -13 -12 -17 -7 -5 -8 -3 -3 6 6 9 4 11 -5 5 -10 -6 -9
-11 5 -22 11 -7 14 -13 8 -13 -6 0 -18 -3 -27 -6 -13 -5 -16 1 -16 25 0 26 4
31 25 31 14 0 25 -4 25 -9z m4886 -16 c-9 -9 -16 -13 -16 -8 0 12 22 34 28 28
2 -2 -3 -11 -12 -20z m124 -4 c0 -29 -59 -41 -80 -16 -11 13 -10 14 4 9 9 -3
16 -2 16 3 0 4 14 9 30 9 17 1 30 -1 30 -5z m-5053 -73 c-3 -8 -6 -5 -6 6 -1
11 2 17 5 13 3 -3 4 -12 1 -19z m-1634 -51 c30 -16 43 -27 36 -34 -6 -6 -2 -9
13 -9 15 1 24 -6 26 -19 2 -11 11 -28 19 -37 9 -10 13 -24 10 -33 -4 -8 -2
-15 3 -15 28 0 46 -94 23 -118 -7 -8 -11 -18 -8 -23 4 -5 1 -9 -5 -9 -6 0 -9
-4 -6 -9 3 -5 -1 -11 -9 -15 -8 -3 -12 -12 -9 -21 4 -9 1 -15 -7 -15 -8 0 -5
-6 7 -15 10 -8 14 -15 9 -15 -6 0 -11 -9 -11 -19 0 -11 4 -17 8 -15 4 3 7 -10
6 -29 -1 -19 2 -39 5 -44 4 -6 0 -16 -8 -23 -12 -10 -15 -10 -15 1 0 9 -3 10
-8 3 -4 -6 -22 -10 -39 -8 -20 1 -33 -2 -33 -9 0 -7 -4 -6 -10 3 -8 11 -10 8
-8 -15 2 -24 -1 -29 -14 -27 -10 2 -18 -2 -18 -8 0 -6 -4 -9 -9 -5 -5 3 -12 1
-15 -3 -3 -5 7 -9 22 -8 18 1 26 -3 24 -13 -3 -12 0 -12 12 -1 14 10 16 10 16
-5 0 -11 5 -15 15 -12 8 4 17 2 20 -4 4 -5 12 -6 18 -2 7 4 6 -1 -2 -11 -12
-15 -12 -17 0 -14 8 2 13 -3 11 -12 -2 -8 0 -12 4 -8 9 10 64 -23 64 -38 0 -6
21 -17 48 -24 37 -10 61 -27 115 -83 61 -63 72 -79 65 -91 -2 -2 6 -13 16 -25
11 -12 16 -21 12 -21 -4 0 2 -15 13 -33 11 -19 18 -37 14 -40 -3 -4 -1 -7 5
-7 6 0 17 -18 23 -40 7 -22 15 -40 19 -40 5 0 10 -10 14 -22 7 -29 92 -124
106 -120 7 1 8 -2 5 -8 -4 -7 2 -14 14 -17 11 -3 19 -9 16 -13 -3 -5 -1 -11 5
-15 5 -3 10 -24 10 -47 0 -31 6 -46 29 -67 16 -15 35 -46 42 -69 7 -23 15 -42
18 -42 3 0 7 -12 8 -28 3 -32 38 -104 47 -95 3 4 6 -1 6 -10 0 -9 -7 -17 -15
-17 -9 0 -12 -6 -8 -17 4 -10 2 -14 -5 -9 -7 4 -10 -1 -7 -14 2 -11 -1 -20 -6
-20 -5 0 -14 -11 -19 -25 -5 -14 -15 -25 -22 -25 -9 0 -8 -3 2 -10 9 -6 10
-10 3 -10 -7 0 -17 9 -23 19 -13 25 -13 34 0 26 22 -14 8 16 -15 31 -14 9 -25
21 -24 28 0 7 2 6 6 -1 2 -7 9 -13 15 -13 7 0 7 5 -1 13 -6 8 -7 17 -3 22 4 4
-3 2 -16 -4 -12 -7 -27 -9 -32 -6 -12 7 -29 -26 -22 -45 2 -8 1 -12 -3 -8 -14
13 -12 73 4 93 14 18 14 18 0 7 -9 -6 -18 -9 -21 -6 -4 3 -5 -9 -4 -26 1 -17
-4 -35 -10 -41 -10 -8 -12 -6 -9 10 2 12 -1 21 -6 21 -6 0 -8 8 -5 18 4 11 -2
22 -14 30 -17 11 -20 10 -20 -7 0 -28 -18 -36 -22 -10 -2 13 -11 23 -22 25
-21 3 -38 23 -30 36 5 8 -22 12 -61 9 -19 -2 -19 -1 -2 12 9 8 17 18 17 22 0
4 -7 2 -15 -5 -13 -11 -18 -10 -30 6 -11 16 -17 17 -34 7 -20 -13 -33 -5 -43
27 -3 10 -6 8 -10 -8 -4 -12 -3 -20 1 -18 4 3 7 -4 7 -14 0 -14 -3 -16 -13 -8
-7 6 -13 7 -13 3 0 -4 -8 -1 -17 6 -11 10 -14 10 -9 2 4 -7 2 -13 -3 -13 -6 0
-11 4 -11 10 0 5 -5 9 -11 7 -6 -1 -14 5 -16 13 -4 12 -3 12 5 1 6 -8 12 -9
16 -3 3 6 16 8 29 5 20 -4 20 -3 4 7 -10 6 -23 9 -30 7 -7 -2 -20 0 -29 4 -18
10 -35 -5 -18 -16 5 -3 10 -12 10 -18 0 -8 -3 -7 -9 2 -7 11 -13 9 -32 -10
-15 -15 -21 -17 -16 -6 8 20 -4 22 -22 4 -10 -10 -17 -7 -35 13 -25 29 -48 37
-40 15 4 -8 10 -12 15 -9 5 3 9 0 9 -5 0 -18 -28 -12 -34 7 -7 20 -4 38 6 35
4 -2 5 4 2 12 -10 25 -34 -8 -27 -36 6 -22 5 -23 -11 -10 -9 8 -14 21 -12 28
4 9 0 13 -12 11 -9 -1 -23 1 -29 5 -8 5 -13 3 -13 -4 0 -7 -9 -5 -26 6 -14 9
-32 14 -40 11 -8 -3 -14 -1 -14 5 0 6 -6 9 -14 6 -8 -3 -17 1 -20 9 -4 10 -2
12 6 8 7 -4 8 -3 4 4 -4 6 -13 9 -21 5 -9 -3 -15 1 -15 9 0 7 -13 24 -30 38
-16 14 -30 32 -30 42 0 9 -5 18 -11 20 -14 5 -41 68 -29 68 6 0 10 5 10 11 0
5 -4 7 -10 4 -5 -3 -7 0 -4 9 3 8 0 24 -6 36 -10 18 -10 21 2 14 7 -4 5 2 -6
14 -15 17 -16 25 -7 36 8 10 9 16 1 21 -14 9 -13 27 3 20 6 -4 3 1 -8 10 -15
12 -17 18 -7 24 7 4 10 15 6 24 -3 9 -10 15 -15 12 -11 -7 -2 36 10 48 12 12
2 39 -11 31 -6 -4 -6 -9 2 -14 9 -5 9 -9 1 -14 -7 -5 -14 4 -17 23 -4 17 -10
28 -15 25 -5 -3 -6 2 -3 10 3 9 11 13 18 10 6 -3 0 3 -13 14 -13 10 -21 24
-18 29 4 6 0 16 -8 23 -13 11 -14 10 -9 -6 4 -10 4 -16 0 -13 -4 4 -8 16 -11
27 -4 22 9 36 35 37 8 0 14 6 12 13 -1 8 2 11 7 7 13 -7 62 5 56 14 -2 4 18
13 45 20 34 9 50 18 50 29 0 14 2 14 13 1 6 -8 11 -12 10 -10 -2 2 2 10 7 16
7 9 3 12 -18 10 -41 -3 -44 -4 -37 -15 10 -16 -1 -11 -16 7 -12 15 -12 16 1 8
13 -8 13 -7 1 8 -16 20 -22 22 -19 5 3 -14 -51 -12 -65 2 -11 10 -47 1 -47
-12 0 -6 -6 -8 -14 -5 -17 7 -49 -26 -39 -38 5 -5 0 -3 -10 4 -10 8 -16 20
-13 27 3 7 -2 18 -10 25 -10 8 -11 15 -4 24 5 6 6 16 2 21 -4 4 2 2 12 -6 13
-10 17 -10 12 -2 -4 7 -1 12 8 12 9 0 16 4 16 9 0 4 12 6 26 3 18 -3 25 -1 20
6 -3 6 -2 14 4 17 6 4 9 1 8 -7 -3 -15 31 -19 49 -5 7 5 18 5 25 1 7 -4 5 2
-5 13 -9 11 -15 22 -13 24 2 2 -6 4 -19 4 -13 0 -20 -4 -17 -10 3 -5 -4 -1
-16 9 -12 11 -25 16 -29 13 -3 -4 0 -7 7 -7 7 0 10 -3 7 -7 -4 -3 -16 2 -27
12 -20 18 -21 18 -14 0 6 -15 4 -15 -15 4 -16 16 -23 35 -23 60 0 20 -5 45
-11 56 -6 11 -10 26 -9 33 2 6 -2 12 -8 12 -5 0 -10 -6 -11 -12 0 -10 -2 -10
-6 0 -2 6 -10 9 -15 6 -7 -4 -8 -2 -4 5 4 6 11 9 16 6 5 -3 11 -1 15 5 3 5 -2
10 -11 10 -14 0 -15 3 -6 12 9 9 16 7 31 -6 14 -13 21 -14 27 -5 4 7 3 10 -3
6 -6 -4 -19 3 -29 14 -10 11 -24 17 -31 15 -7 -3 -15 0 -19 6 -4 6 -3 8 3 5 6
-4 9 12 7 43 -1 28 2 50 7 50 6 0 8 4 4 9 -3 6 4 8 15 6 11 -2 20 0 20 6 0 5
-4 9 -10 9 -5 0 -10 4 -10 9 0 5 10 7 22 3 17 -4 20 -2 15 11 -4 11 -2 14 8
11 12 -5 12 -9 -1 -29 -9 -13 -12 -30 -8 -36 5 -9 10 -5 16 12 7 19 11 21 18
9 9 -13 10 -13 11 0 1 8 1 18 0 23 0 4 3 7 8 7 5 0 8 -11 7 -24 0 -13 -4 -22
-8 -19 -5 2 -8 -1 -8 -6 0 -6 5 -11 12 -11 6 0 8 -3 5 -6 -4 -4 -13 -1 -21 5
-10 9 -16 9 -21 1 -5 -8 -11 -8 -20 0 -10 9 -19 9 -32 0 -16 -9 -15 -10 6 -4
16 4 21 3 17 -5 -4 -6 -4 -11 1 -10 22 4 32 -2 27 -16 -4 -10 -2 -13 7 -10 9
3 14 -3 15 -20 1 -14 -2 -22 -7 -19 -14 8 -10 -2 5 -15 12 -10 14 -7 11 19 -4
27 -2 30 10 20 11 -9 15 -9 15 -1 0 6 -4 11 -10 11 -5 0 -10 7 -10 17 0 14 2
14 20 -2 21 -19 21 -19 6 10 -15 28 -13 50 4 40 10 -6 8 15 -4 34 -6 10 -5 12
2 7 7 -4 12 -3 12 3 0 6 -16 13 -35 17 -19 3 -37 10 -40 14 -3 5 4 6 16 3 12
-4 25 0 31 8 8 11 8 10 4 -5 -4 -13 -2 -17 8 -13 7 3 19 0 27 -6 7 -7 1 5 -14
25 -18 24 -23 39 -16 44 6 3 9 15 6 25 -3 10 -1 22 4 25 5 3 7 9 4 13 -2 5 2
17 10 27 10 13 14 14 12 4 -2 -8 -2 -12 0 -7 3 4 8 5 13 2 4 -3 6 4 3 15 -4
14 0 20 11 20 9 0 16 -5 16 -11 0 -5 4 -8 9 -5 12 8 0 -48 -13 -56 -7 -5 -5
-8 6 -8 9 0 20 -4 23 -10 4 -6 -1 -7 -12 -4 -16 5 -15 3 2 -11 11 -9 19 -20
18 -25 -1 -4 4 -14 12 -20 8 -7 15 -18 15 -26 0 -7 4 -15 9 -18 5 -3 7 8 6 25
-1 16 0 27 4 24 6 -7 7 -12 10 -38 0 -8 8 -14 16 -14 11 0 12 4 4 13 -7 8 -7
14 0 18 6 4 8 14 5 24 -5 15 -5 15 6 -1 6 -9 8 -22 5 -27 -3 -6 -3 -10 0 -10
3 0 11 14 16 30 6 17 15 30 21 30 5 0 6 5 2 11 -4 8 -1 8 13 1 17 -10 19 -8
17 24 -2 23 0 32 8 28 18 -12 28 19 10 32 -14 11 -11 12 20 10 21 -2 35 0 33
5 -5 6 9 16 26 18 3 1 26 -10 52 -22z m6037 -84 c0 -7 -4 -13 -10 -13 -5 0
-10 12 -10 28 0 21 2 24 10 12 5 -8 10 -21 10 -27z m-1460 -26 c0 -7 -11 -13
-25 -13 -41 0 -28 18 18 25 4 0 7 -5 7 -12z m-2402 -7 c6 0 12 -4 12 -9 0 -20
-149 -29 -161 -9 -14 22 1 26 69 23 37 -3 73 -5 80 -5z m3151 -5 c23 5 32 2
45 -17 15 -21 15 -23 -1 -29 -20 -7 -46 8 -37 22 8 14 -9 10 -31 -7 -20 -16
-20 -16 2 -9 18 5 22 3 17 -10 -4 -9 -15 -14 -30 -12 -26 3 -45 17 -24 17 7 0
11 3 8 6 -4 3 -16 1 -27 -6 -17 -8 -22 -8 -27 3 -2 7 -11 14 -19 14 -13 0 -13
-3 0 -18 15 -15 14 -17 -17 -15 -22 1 -34 7 -36 19 -2 9 -7 17 -12 17 -4 0 -6
-8 -3 -19 3 -10 0 -22 -6 -26 -15 -8 -39 16 -33 34 6 18 -19 32 -35 19 -10 -8
-13 -6 -13 7 0 16 10 17 110 13 66 -3 110 -1 110 5 0 5 7 4 15 -3 8 -7 26 -9
44 -5z m372 -8 c-10 -9 -11 -8 -5 6 3 10 9 15 12 12 3 -3 0 -11 -7 -18z
m-3027 -1 c-7 -19 -28 -26 -45 -15 -12 7 -12 9 1 10 8 1 18 1 23 0 4 0 7 4 7
9 0 6 4 10 10 10 5 0 7 -6 4 -14z m356 4 c0 -5 -2 -10 -4 -10 -3 0 -8 5 -11
10 -3 6 -1 10 4 10 6 0 11 -4 11 -10z m143 1 c5 0 6 -4 4 -9 -3 -4 -20 -6 -39
-5 -18 1 -41 2 -50 2 -10 1 -18 5 -18 10 0 8 61 9 103 2z m2344 -5 c4 -3 -7
-7 -23 -7 -16 -1 -40 -3 -54 -5 -30 -3 -60 4 -60 15 0 9 128 7 137 -3z m-2457
0 c0 -3 -4 -8 -10 -11 -5 -3 -10 -1 -10 4 0 6 5 11 10 11 6 0 10 -2 10 -4z
m2615 -6 c9 -14 -43 -24 -59 -11 -7 6 -17 7 -21 3 -5 -4 -5 -1 -1 6 8 14 72
16 81 2z m69 -94 c-3 -21 -8 -43 -12 -50 -8 -13 -21 74 -13 89 3 6 6 13 7 18
4 20 6 20 13 2 5 -11 7 -37 5 -59z m-1134 49 c0 -8 6 -12 14 -9 10 4 18 -6 25
-33 14 -49 14 -53 -3 -53 -9 0 -16 13 -19 33 l-4 32 -1 -37 -2 -37 -57 6 c-78
7 -88 20 -16 19 63 -1 63 -1 49 62 -5 21 -4 32 3 32 6 0 11 -7 11 -15z m-1137
-12 c-3 -7 -6 -13 -8 -13 -2 0 -5 6 -8 13 -3 8 1 14 8 14 7 0 11 -6 8 -14z
m-1472 -7 c5 3 9 0 9 -5 0 -6 -4 -11 -10 -11 -5 0 -10 -10 -10 -22 0 -20 -1
-21 -16 -6 -13 13 -14 19 -3 39 7 15 14 19 17 11 2 -6 8 -10 13 -6z m62 -28
c-3 -18 -11 -28 -22 -27 -10 0 -11 2 -3 6 6 2 12 13 12 22 0 16 10 34 16 29 1
-2 0 -15 -3 -30z m2285 20 c-2 -8 8 -14 22 -15 59 -3 86 -23 57 -40 -8 -4 -16
-16 -20 -26 -6 -15 -16 -17 -57 -15 -46 3 -64 11 -41 20 5 2 3 8 -3 14 -10 9
-16 7 -25 -8 -7 -12 -8 -17 -2 -13 6 3 11 1 11 -5 0 -7 -16 -11 -45 -9 -52 3
-64 -4 -41 -26 9 -9 16 -30 16 -46 0 -22 -5 -30 -25 -35 -14 -3 -25 -12 -25
-20 0 -19 -16 -18 -24 1 -6 17 -52 12 -100 -11 -21 -10 -39 -11 -70 -4 -22 5
-54 10 -71 10 -38 0 -54 10 -58 38 -2 12 -6 25 -10 28 -4 4 4 22 18 40 14 18
25 38 25 44 0 7 7 10 15 6 8 -3 15 0 15 6 0 7 5 5 13 -4 18 -24 57 -33 57 -14
0 9 11 23 25 32 37 24 127 11 159 -22 19 -22 24 -23 35 -10 8 10 9 16 1 21
-15 9 -12 32 5 39 8 3 14 2 14 -2 -1 -4 -1 -14 0 -22 1 -13 2 -13 11 0 8 13
11 13 22 1 11 -12 10 -13 -2 -6 -8 5 -11 4 -7 0 4 -5 14 -10 22 -11 20 -3 20
35 0 42 -26 10 -16 21 14 16 16 -2 37 1 48 7 23 13 23 13 21 -1z m-2749 -70
c9 -18 23 -28 38 -29 12 -1 26 -2 31 -3 4 -1 24 -5 45 -9 20 -5 37 -13 37 -18
0 -6 8 -8 19 -4 21 6 100 -25 119 -48 11 -13 10 -15 -5 -12 -10 2 -19 4 -20 5
-2 2 -7 4 -13 5 -5 1 -11 3 -12 5 -2 1 -19 4 -38 6 -19 3 -42 8 -50 11 -27 11
-34 13 -90 23 -73 13 -162 49 -153 63 4 6 0 8 -10 4 -9 -3 -19 -1 -23 5 -5 8
3 9 24 5 29 -6 32 -4 32 19 0 21 4 24 20 19 13 -4 20 -2 21 7 1 7 4 4 8 -7 4
-11 13 -32 20 -47z m1141 58 c0 -2 -8 -10 -17 -17 -16 -13 -17 -12 -4 4 13 16
21 21 21 13z m-155 -39 c16 -5 15 -5 -4 -4 -14 1 -26 9 -28 17 -3 10 -2 11 4
4 4 -7 17 -14 28 -17z m465 7 c0 -14 -3 -14 -15 -4 -8 7 -15 14 -15 16 0 2 7
4 15 4 8 0 15 -7 15 -16z m3017 -24 c1 -45 -3 -50 -18 -17 -9 21 -9 21 -6 -5
2 -15 0 -33 -4 -40 -5 -8 -9 8 -9 41 0 47 2 52 15 41 13 -11 14 -10 9 4 -3 9
-2 16 2 16 5 0 10 -18 11 -40z m219 -21 c7 -8 15 -30 20 -49 11 -48 11 -54 1
-61 -10 -8 -26 -74 -27 -112 0 -21 6 -30 20 -34 11 -3 20 -14 20 -24 0 -10 7
-22 15 -27 13 -6 13 -14 4 -39 -15 -45 -59 -55 -73 -17 -9 24 -43 16 -73 -19
-15 -18 -43 -43 -62 -56 -31 -23 -48 -53 -92 -166 l-20 -50 48 51 c33 35 75
64 135 94 47 23 98 53 114 66 25 23 49 29 84 24 24 -3 25 -9 4 -25 -10 -8 -14
-15 -9 -15 9 0 -24 -20 -85 -51 -55 -29 -146 -94 -170 -122 -14 -16 -38 -44
-54 -61 -41 -45 -59 -74 -53 -88 2 -7 0 -24 -5 -37 -6 -19 -11 -22 -20 -13 -9
9 -7 16 8 27 16 12 16 14 2 9 -10 -3 -18 -2 -18 4 0 9 -63 52 -76 52 -2 0 -4
-6 -4 -13 0 -8 -10 -22 -22 -33 l-22 -19 22 36 c12 20 19 39 15 43 -4 4 0 4
10 0 10 -3 17 -1 17 6 0 6 4 9 8 6 11 -7 42 58 42 87 0 13 -5 28 -12 35 -6 6
-17 28 -24 49 -14 40 -4 58 25 48 11 -4 13 4 9 40 -4 35 -2 45 9 45 11 0 14
-11 13 -42 -4 -61 -1 -88 8 -88 6 0 18 24 71 140 6 14 15 32 19 40 5 8 19 37
32 63 13 28 35 54 51 62 20 11 26 20 22 35 -4 15 -9 17 -23 10 -27 -14 -28
-13 -35 24 -6 28 -12 35 -38 40 l-31 6 54 57 c30 32 58 59 63 61 4 2 7 8 7 14
0 5 10 18 23 28 22 19 22 18 32 -4 6 -13 15 -29 21 -37z m-3478 42 c28 -2 9
-16 -20 -15 -18 0 -39 -4 -45 -9 -9 -7 -13 -5 -13 6 0 16 23 25 50 21 8 -1 21
-3 28 -3z m108 -3 c5 -7 3 -8 -5 -4 -8 5 -11 2 -9 -9 2 -11 -4 -19 -14 -20
-16 -3 -16 -1 -1 21 18 27 19 28 29 12z m1578 -39 c-2 -4 -13 -5 -24 -2 -11 3
-17 9 -14 14 3 5 -2 6 -10 3 -19 -7 -21 7 -4 24 8 8 17 6 34 -11 12 -12 21
-25 18 -28z m834 26 c-3 -3 -9 2 -12 12 -6 14 -5 15 5 6 7 -7 10 -15 7 -18z
m42 19 c0 -8 -19 -13 -24 -6 -3 5 1 9 9 9 8 0 15 -2 15 -3z m-700 -61 c0 -10
-5 -25 -10 -33 -7 -11 -10 -7 -10 18 0 17 5 32 10 32 6 0 10 -8 10 -17z m459
1 c2 -2 -17 -4 -42 -4 -26 0 -47 5 -47 10 0 10 79 5 89 -6z m-425 -20 c5 -14
4 -15 -9 -4 -17 14 -19 20 -6 20 5 0 12 -7 15 -16z m141 -13 c38 -8 37 -9 -25
-11 -36 -1 -73 -3 -83 -5 -9 -2 -15 1 -11 6 3 5 9 7 14 4 5 -3 11 -1 15 5 7
12 35 12 90 1z m1225 -1 c0 -5 -5 -10 -11 -10 -5 0 -7 5 -4 10 3 6 8 10 11 10
2 0 4 -4 4 -10z m-3636 -8 c3 -5 -1 -9 -9 -9 -8 0 -12 4 -9 9 3 4 7 8 9 8 2 0
6 -4 9 -8z m1363 -17 c0 -8 -4 -15 -9 -15 -10 0 -11 14 -1 23 9 10 10 9 10 -8z
m501 3 c-6 -18 -28 -21 -28 -4 0 9 7 16 16 16 9 0 14 -5 12 -12z m342 -10 c20
-22 28 -54 10 -43 -6 3 -7 -1 -4 -9 3 -9 15 -16 25 -16 10 0 19 -4 19 -9 0 -5
12 -8 26 -8 14 0 30 -5 35 -10 5 -5 -13 -9 -48 -9 -53 1 -59 -1 -71 -26 -7
-16 -20 -28 -28 -28 -7 0 -14 -5 -14 -10 0 -7 -6 -7 -18 -1 -22 12 -69 -9 -64
-29 2 -8 -4 -11 -17 -7 -11 3 -25 -1 -32 -9 -6 -8 -19 -14 -28 -15 -11 0 -12
-2 -3 -6 7 -3 19 1 27 7 12 10 15 9 15 -4 0 -9 5 -16 11 -16 5 0 8 4 5 9 -4 5
3 7 14 4 19 -5 20 -6 3 -20 -17 -13 -16 -13 3 -4 11 5 27 18 35 28 12 16 12
17 -2 6 -14 -11 -16 -9 -17 17 0 17 4 30 10 30 5 0 7 -7 4 -15 -4 -11 3 -17
24 -22 16 -3 27 -9 25 -14 -3 -4 0 -11 6 -15 7 -4 10 -3 7 2 -9 14 10 54 24
54 10 0 10 -2 -1 -9 -10 -6 -2 -11 26 -15 22 -4 44 -6 49 -5 36 7 50 -6 60
-58 3 -17 0 -20 -18 -15 -16 4 -19 2 -13 -8 5 -8 4 -11 -3 -6 -6 3 -13 2 -17
-4 -3 -5 2 -10 12 -10 11 0 19 -7 19 -17 2 -50 30 -84 57 -69 9 6 17 17 17 24
0 7 5 10 10 7 6 -3 10 -1 10 4 0 6 7 11 16 11 8 0 12 5 9 10 -3 6 -1 10 4 10
14 0 14 -5 -1 -32 -18 -32 -41 -48 -57 -42 -11 3 -11 1 -3 -9 16 -19 4 -29
-19 -16 -15 7 -19 7 -17 -3 2 -8 -6 -13 -20 -12 -12 1 -21 -1 -18 -3 10 -10
-19 -30 -36 -25 -10 2 -18 -1 -18 -7 0 -20 -61 -51 -81 -41 -9 5 -32 10 -50
11 -88 4 -131 57 -127 156 2 45 6 53 25 58 13 3 23 10 23 16 0 6 5 7 10 4 6
-3 10 -2 10 2 0 5 -10 14 -21 22 -20 12 -21 11 -16 -11 5 -21 5 -21 -7 -5 -7
9 -18 17 -23 17 -17 0 -10 29 8 35 9 3 19 15 22 26 5 17 3 18 -10 8 -12 -10
-16 -10 -24 2 -5 8 -9 10 -9 4 -1 -5 -7 2 -15 17 -22 39 -44 26 -88 -48 -21
-35 -43 -64 -50 -64 -7 0 -6 4 3 10 8 5 12 10 8 10 -4 0 -1 15 6 33 7 17 12
41 12 52 -1 11 4 23 9 27 6 4 1 8 -10 8 -15 1 -13 4 10 14 36 15 54 -1 24 -22
-20 -14 -26 -36 -8 -30 6 2 9 7 7 12 -2 4 8 13 20 20 22 12 23 14 7 29 -13 14
-21 15 -37 6 -19 -10 -20 -9 -13 7 18 46 18 54 -4 54 -14 0 -19 5 -14 16 3 8
12 13 20 10 8 -3 12 -2 9 2 -3 4 4 13 15 20 10 7 19 8 19 3 0 -5 14 -12 30
-16 28 -6 43 -25 19 -25 -5 0 -8 -4 -4 -9 3 -5 0 -13 -6 -17 -7 -4 -9 -3 -5 4
3 6 2 13 -3 16 -5 4 -12 2 -15 -3 -10 -16 14 -27 59 -30 16 -1 25 -7 25 -17 0
-12 -6 -15 -22 -11 -23 6 -23 6 -3 -9 12 -10 31 -13 49 -10 16 3 36 6 46 6 17
0 23 39 8 50 -4 3 5 14 21 23 29 17 29 17 23 -5 -5 -22 -5 -22 11 -6 9 9 17
22 17 28 0 6 5 8 10 5 6 -3 10 1 10 9 0 9 -6 16 -14 16 -8 0 -18 5 -21 10 -13
21 54 10 75 -12z m-894 -37 c2 -17 -1 -33 -6 -36 -6 -4 -10 11 -10 36 0 47 11
47 16 0z m1796 17 c-4 -16 -2 -20 10 -16 13 5 14 3 4 -17 -6 -13 -14 -21 -17
-19 -4 2 -9 0 -11 -6 -2 -6 -9 -6 -18 0 -12 7 -12 12 -2 22 6 6 12 20 12 29 0
10 6 20 13 22 6 3 13 6 14 6 0 1 -1 -9 -5 -21z m-2357 -12 c0 -11 -6 -21 -14
-24 -10 -3 -12 0 -8 12 6 15 -4 21 -26 17 -5 -1 -5 3 -2 9 11 18 50 7 50 -14z
m45 2 c0 -19 -2 -20 -10 -8 -13 19 -13 30 0 30 6 0 10 -10 10 -22z m381 7 c1
-8 2 -23 2 -32 1 -10 5 -21 11 -24 14 -10 -3 -59 -20 -59 -10 0 -14 -6 -10
-15 8 -21 -20 -30 -50 -17 -27 13 -32 32 -9 32 8 0 15 -4 15 -10 0 -5 7 -10
16 -10 12 0 15 6 10 24 -3 13 -1 26 4 28 6 2 11 24 12 51 2 43 16 67 19 32z
m-354 -17 c-3 -8 -6 -5 -6 6 -1 11 2 17 5 13 3 -3 4 -12 1 -19z m543 7 c0 -8
4 -15 10 -15 5 0 7 8 4 18 -5 14 -4 15 5 2 6 -8 11 -25 11 -37 0 -20 4 -21 41
-17 22 3 39 1 36 -3 -3 -4 4 -24 14 -43 11 -19 20 -28 21 -20 0 8 2 20 3 25 2
6 3 14 4 18 0 4 10 3 21 -3 16 -9 20 -8 20 6 0 12 6 15 23 10 60 -18 98 -19
117 -1 14 12 20 14 20 5 0 -9 3 -10 13 -1 11 8 17 5 27 -13 7 -13 20 -26 30
-29 12 -3 17 -14 16 -36 -1 -37 -20 -46 -24 -12 -3 21 -8 23 -42 18 -21 -3
-42 -1 -48 5 -6 6 -11 4 -15 -6 -4 -9 -1 -13 6 -10 7 2 25 -7 42 -20 l29 -23
-34 -7 c-61 -13 -68 -16 -73 -37 l-6 -21 23 21 c14 13 35 21 57 20 32 0 32 -1
12 -11 -28 -13 -30 -28 -5 -28 26 0 34 -11 21 -27 -6 -7 -8 -13 -3 -13 5 0 2
-5 -6 -10 -21 -14 -86 -12 -102 3 -7 6 -18 12 -25 12 -7 0 -23 15 -36 32 -13
18 -26 30 -29 28 -3 -3 -12 5 -21 19 -12 18 -25 24 -52 24 -19 0 -35 -3 -35
-8 0 -31 37 -100 68 -128 25 -23 33 -35 24 -39 -7 -3 -18 -17 -23 -32 -10 -25
-11 -25 -35 32 -30 71 -57 190 -40 180 6 -3 0 6 -13 20 -14 15 -27 24 -30 21
-3 -3 0 -8 6 -12 7 -4 11 -16 11 -27 -1 -11 1 -32 5 -47 8 -30 -22 -72 -59
-82 -20 -6 -21 -3 -19 34 2 37 15 71 15 40 0 -10 3 -10 15 0 12 10 13 15 4 21
-10 6 -10 13 -1 33 6 14 9 26 6 26 -3 0 -11 -15 -19 -32 -11 -25 -14 -28 -15
-13 -1 11 -3 32 -5 47 -2 19 1 28 13 30 14 3 14 5 -1 20 -18 18 -23 33 -8 23
5 -3 13 4 16 16 5 15 2 25 -9 31 -13 7 -14 12 -3 23 16 19 27 19 27 0z m1050
5 c0 -5 -2 -10 -4 -10 -3 0 -8 5 -11 10 -3 6 -1 10 4 10 6 0 11 -4 11 -10z
m-1735 -10 c3 -6 -1 -7 -9 -4 -18 7 -21 14 -7 14 6 0 13 -4 16 -10z m1305 -11
c0 -6 -4 -7 -10 -4 -5 3 -10 11 -10 16 0 6 5 7 10 4 6 -3 10 -11 10 -16z
m-2014 3 c10 -6 11 -27 5 -65 0 -4 -7 -2 -15 5 -8 7 -11 17 -6 22 5 5 5 17 -1
28 -10 19 -3 23 17 10z m2874 -3 c0 -5 6 -7 13 -3 8 5 8 2 -2 -9 -12 -15 -11
-17 3 -17 9 0 16 8 16 18 1 15 2 15 10 1 13 -21 5 -54 -11 -52 -11 2 -14 -7
-11 -36 4 -37 3 -38 -22 -34 -31 6 -58 34 -38 40 6 3 12 11 12 19 0 8 -6 14
-12 14 -9 0 -10 3 -2 8 6 4 10 16 8 27 -2 11 2 23 9 27 17 11 27 10 27 -3z
m105 -27 c-3 -7 0 -10 5 -7 19 12 11 -63 -7 -75 -16 -10 -16 -11 2 -5 11 3 16
3 12 -1 -4 -4 -2 -13 4 -21 6 -7 8 -13 5 -13 -4 0 -2 -9 4 -21 11 -19 13 -19
35 -5 l23 15 -11 -35 c-8 -27 -8 -37 3 -47 10 -10 12 -8 7 11 -3 12 -2 20 1
18 4 -2 7 11 8 30 0 19 -3 34 -7 34 -11 0 -5 25 6 28 6 1 10 -2 10 -7 0 -5 3
-13 8 -17 4 -4 7 0 7 9 0 8 3 17 8 20 4 2 2 2 -5 1 -17 -4 -26 28 -11 38 17
10 23 10 52 -3 14 -7 23 -16 20 -20 -3 -5 0 -9 5 -9 6 0 11 4 11 9 0 5 7 8 15
7 9 -1 14 -6 13 -12 -2 -5 -6 -8 -10 -7 -5 2 -8 -2 -8 -7 0 -5 6 -10 14 -10
15 0 25 -27 19 -47 -3 -7 -9 -13 -15 -13 -6 0 -6 6 2 15 21 25 -9 18 -32 -7
-11 -13 -16 -17 -12 -9 5 11 1 12 -19 7 -14 -3 -28 -2 -32 4 -3 5 -13 6 -21 3
-9 -3 -11 -8 -6 -12 7 -4 5 -18 -4 -39 -7 -18 -18 -31 -23 -28 -5 3 -12 -1
-15 -10 -3 -8 -11 -12 -17 -8 -7 4 -9 0 -5 -12 3 -11 1 -26 -4 -34 -7 -10 -10
-11 -10 -2 0 7 -14 27 -31 44 -19 20 -28 39 -25 51 6 26 -13 77 -30 77 -8 0
-14 10 -14 26 0 14 4 23 10 19 11 -6 12 -2 15 56 2 50 11 62 36 46 10 -6 17
-18 14 -25z m-3164 -3 c23 -16 28 -26 23 -42 -4 -12 -7 -27 -7 -34 0 -7 -4
-10 -9 -7 -4 3 -8 -27 -8 -66 0 -45 4 -69 10 -65 6 3 10 -1 10 -10 0 -9 -4
-13 -10 -10 -13 8 -13 -26 -1 -58 7 -18 6 -27 -3 -30 -12 -5 -36 -90 -36 -128
0 -32 28 -34 51 -5 17 22 27 26 50 21 l29 -7 -1 129 c-1 159 6 234 22 244 15
9 32 1 24 -11 -3 -5 0 -12 6 -16 8 -5 9 -3 5 5 -6 8 -2 11 10 9 11 -2 18 2 17
8 -1 6 5 11 13 11 8 0 14 -4 14 -8 0 -4 9 -10 20 -14 11 -3 19 -9 19 -13 -3
-21 3 -34 14 -29 26 10 44 -49 24 -81 -5 -7 -5 -21 -2 -32 6 -18 -3 -25 -27
-21 -5 0 -7 -29 -6 -66 1 -57 2 -60 5 -20 4 48 15 60 28 30 11 -27 14 -73 4
-67 -5 3 -5 -6 1 -20 7 -20 6 -24 -5 -19 -10 3 -15 -1 -15 -11 0 -9 7 -19 15
-22 8 -4 15 -14 15 -23 0 -28 12 -32 28 -10 8 11 12 23 9 25 -3 3 -1 19 3 35
5 17 5 31 -1 35 -11 6 -2 24 12 24 6 0 7 -4 4 -10 -3 -5 -1 -10 4 -10 6 0 11
-9 11 -19 0 -17 3 -18 24 -8 13 7 22 15 20 19 -3 4 5 12 16 18 24 13 26 3 3
-29 -9 -14 -11 -21 -5 -17 8 5 11 0 8 -16 -5 -31 13 -66 25 -47 4 7 4 18 0 24
-10 13 -10 46 0 39 4 -2 10 2 12 8 5 12 8 -3 11 -52 1 -8 9 -16 19 -18 18 -4
24 -32 6 -32 -5 0 -7 5 -4 10 3 6 -1 10 -9 10 -9 0 -16 -7 -16 -16 0 -10 -7
-14 -22 -12 -18 2 -22 -2 -23 -22 0 -14 4 -28 9 -31 5 -4 -6 -6 -24 -4 -18 1
-35 8 -40 14 -11 19 -17 -4 -16 -66 1 -29 0 -53 -1 -53 -1 0 -7 9 -13 21 -9
15 -8 24 1 35 9 11 8 14 -9 14 -24 0 -28 -22 -36 -198 -4 -93 -2 -114 10 -119
24 -9 37 -42 24 -58 -7 -8 -17 -13 -23 -12 -8 1 -13 -17 -15 -48 -4 -82 -9
-95 -38 -95 l-25 0 3 87 c2 62 0 87 -9 90 -8 3 -13 -4 -13 -14 0 -11 -10 -30
-22 -43 l-22 -23 -22 28 c-20 26 -27 28 -99 29 -72 1 -78 -1 -81 -20 -2 -12 3
-27 11 -34 33 -28 8 -74 -36 -66 -13 3 -27 5 -31 5 -5 1 -5 17 -2 36 4 26 1
37 -10 41 -9 3 -16 12 -16 18 0 18 45 40 65 32 9 -3 14 -2 11 2 -6 11 5 26 29
40 18 11 18 12 -5 7 -19 -5 -31 0 -48 19 -12 15 -30 26 -39 26 -14 0 -15 2 -4
9 19 12 -3 51 -29 51 -24 0 -26 13 -5 30 10 8 15 9 15 2 0 -6 7 -9 15 -6 9 4
15 0 15 -9 0 -19 39 -15 52 5 6 10 8 8 8 -4 0 -10 5 -18 10 -18 6 0 10 -6 10
-12 0 -9 15 -13 42 -13 l43 0 -3 -42 c-2 -35 1 -41 15 -38 10 1 17 9 15 18 -1
9 8 17 23 21 32 8 39 4 55 -34 12 -30 24 -37 34 -21 3 4 -3 16 -14 26 -29 26
-25 34 15 28 23 -4 35 -2 35 6 0 6 -7 11 -15 11 -8 0 -15 7 -15 16 0 14 3 14
15 4 13 -10 15 -9 15 10 0 15 -5 20 -14 17 -8 -3 -20 0 -26 8 -15 18 4 57 25
49 8 -4 12 -11 8 -17 -3 -6 -1 -7 5 -3 24 14 13 36 -18 36 -16 0 -31 3 -31 8
-5 25 -11 81 -11 105 -1 19 -3 24 -9 15 -6 -10 -11 -9 -23 7 -12 16 -18 17
-39 8 -14 -7 -28 -9 -32 -5 -3 4 -14 7 -23 7 -12 0 -17 9 -17 30 0 40 -33 45
-70 11 -26 -24 -29 -25 -40 -9 -12 16 -14 16 -30 -1 -12 -12 -27 -16 -44 -13
-48 10 -64 -18 -73 -128 -3 -28 -6 -30 -42 -30 -37 0 -40 -2 -49 -35 -5 -19
-7 -49 -4 -67 l5 -31 -63 4 c-35 3 -66 1 -69 -5 -9 -13 -54 10 -60 32 -3 12 3
19 19 23 13 3 32 15 43 27 16 18 18 25 9 37 -14 18 -37 24 -37 10 0 -5 -11
-10 -24 -10 -14 0 -26 -6 -28 -14 -2 -11 -9 -12 -38 -2 -27 8 -38 20 -49 51
-8 22 -20 43 -27 48 -7 4 -15 20 -19 37 -4 16 -15 32 -26 35 -11 4 -17 10 -14
15 5 9 -23 70 -33 70 -4 0 -14 -4 -22 -10 -9 -6 -17 -5 -22 3 -5 8 -8 6 -8 -6
0 -14 5 -17 21 -12 20 7 20 5 -6 -29 -31 -41 -52 -45 -83 -16 -18 17 -21 28
-16 63 3 23 14 49 23 57 9 8 20 22 23 31 4 10 20 16 49 17 49 2 69 16 69 48 0
32 18 76 29 70 5 -3 11 0 14 8 3 7 26 17 52 20 41 7 49 5 68 -17 12 -13 37
-30 55 -37 23 -9 32 -19 32 -36 0 -18 -5 -24 -23 -24 -13 0 -28 5 -34 11 -8 8
-16 2 -29 -20 -10 -17 -22 -32 -26 -32 -4 -1 -12 -3 -18 -4 -5 -1 -18 -3 -27
-4 -14 -1 -13 -5 7 -16 17 -9 33 -35 50 -80 19 -53 29 -67 50 -72 14 -3 39
-14 57 -25 39 -23 55 -6 21 22 -13 11 -26 19 -30 20 -4 0 -21 14 -38 31 -39
41 -41 89 -5 113 33 22 40 21 88 -13 23 -16 54 -32 70 -35 l27 -6 0 59 c0 68
-6 91 -26 91 -16 0 -37 37 -29 50 3 6 22 10 41 10 49 0 116 -64 107 -101 -6
-20 -4 -22 9 -12 13 11 14 4 11 -52 -3 -67 10 -92 32 -61 12 15 15 15 41 -7
54 -46 61 -13 50 233 -7 159 -14 222 -25 215 -8 -4 -6 19 5 72 2 13 13 23 27
26 12 2 24 5 25 6 2 0 17 -8 33 -20z m164 11 c3 -5 1 -10 -4 -10 -6 0 -11 5
-11 10 0 6 2 10 4 10 3 0 8 -4 11 -10z m729 -5 c3 -9 0 -15 -8 -15 -7 0 -13 7
-13 15 0 8 4 15 8 15 4 0 9 -7 13 -15z m-3624 -5 c0 -5 -2 -10 -4 -10 -3 0 -8
5 -11 10 -3 6 -1 10 4 10 6 0 11 -4 11 -10z m4615 0 c-3 -5 -14 -10 -23 -9
-14 0 -13 2 3 9 27 11 27 11 20 0z m165 -9 c0 -11 -4 -23 -10 -26 -6 -4 -10 5
-10 19 0 14 5 26 10 26 6 0 10 -9 10 -19z m225 10 c3 -5 1 -12 -4 -15 -5 -3
-11 1 -15 9 -6 16 9 21 19 6z m1266 -5 c6 -46 5 -136 -1 -126 -5 9 -9 8 -13
-3 -9 -24 -8 -477 1 -477 4 0 12 4 18 10 5 5 14 6 19 2 18 -12 46 -62 41 -71
-3 -5 8 -11 25 -15 18 -3 28 -10 24 -16 -4 -6 1 -22 10 -36 16 -25 13 -44 -7
-44 -5 0 -8 7 -5 15 4 8 2 17 -4 21 -6 3 -13 -3 -16 -15 -3 -12 -12 -21 -20
-21 -10 0 -13 -6 -9 -16 3 -8 2 -12 -4 -9 -6 3 -10 -1 -10 -9 0 -9 7 -16 15
-16 17 0 19 -23 5 -51 -6 -11 -7 -25 -3 -32 4 -6 6 -20 5 -29 -2 -10 2 -18 8
-18 6 0 9 -4 6 -9 -7 -10 22 -24 34 -16 5 3 11 1 15 -5 4 -7 12 -7 25 0 27 15
33 -4 10 -33 -11 -14 -20 -39 -20 -56 l0 -32 30 23 c22 16 33 19 41 11 22 -22
2 -43 -41 -43 -38 0 -40 -2 -40 -30 0 -18 -6 -33 -15 -36 -8 -4 -15 -12 -15
-19 0 -14 -28 -29 -49 -26 -8 2 -10 -2 -5 -11 5 -7 7 -20 6 -30 -2 -9 2 -19 8
-23 24 -15 8 -31 -34 -32 -32 -1 -50 -8 -69 -27 -18 -18 -37 -26 -61 -26 -35
0 -71 -24 -61 -41 4 -5 -7 -9 -22 -9 -25 0 -29 4 -31 30 -1 16 7 47 18 67 18
33 18 38 4 41 -13 3 -13 6 3 18 16 12 13 14 -32 13 -27 -1 -62 4 -77 10 -23 9
-28 17 -28 45 0 40 14 53 36 35 12 -10 18 -8 35 9 12 14 32 22 52 22 18 0 39
6 45 12 14 14 62 19 62 6 0 -17 22 -7 27 12 3 11 10 20 15 20 6 0 8 -7 4 -15
-3 -8 2 -22 11 -31 16 -15 17 -15 24 2 3 11 4 24 2 29 -2 6 4 0 15 -13 22 -24
62 -21 42 3 -6 7 -8 20 -4 29 7 17 -11 22 -21 6 -16 -27 -25 -8 -27 58 -1 17
-4 32 -8 32 -14 0 -30 -25 -30 -47 0 -13 -2 -23 -5 -23 -4 0 -75 47 -83 54 -1
2 2 16 8 32 11 27 10 27 -8 11 -35 -32 -46 14 -12 53 11 12 17 27 14 31 -3 5
4 9 15 9 26 0 35 16 36 63 0 25 -4 37 -14 37 -18 0 -40 -30 -41 -54 0 -19 0
-19 -14 -1 -8 11 -11 26 -8 34 3 8 1 12 -5 8 -6 -4 -13 0 -17 8 -3 9 0 15 8
15 7 0 13 9 12 20 -1 13 10 26 34 37 35 18 55 63 28 63 -11 0 -11 2 0 9 11 6
12 62 8 287 -2 153 -5 290 -5 303 -1 13 3 29 8 35 12 14 81 16 82 2z m-6274
-23 c5 3 9 -9 9 -26 1 -18 -1 -26 -3 -20 -3 7 -4 15 -3 18 0 3 -7 14 -18 23
-10 9 -12 13 -5 9 6 -5 16 -6 20 -4z m3228 -17 c0 -15 -4 -27 -9 -29 -12 -3
-17 31 -5 39 5 3 6 10 3 16 -4 6 -3 8 2 5 6 -3 10 -17 9 -31z m1022 2 c-3 -7
-5 -2 -5 12 0 14 2 19 5 13 2 -7 2 -19 0 -25z m-829 -9 c-3 -8 -7 -3 -11 10
-4 17 -3 21 5 13 5 -5 8 -16 6 -23z m382 4 c0 -19 -3 -24 -10 -17 -6 6 -8 18
-4 27 9 24 14 21 14 -10z m2357 -25 c-3 -7 -5 -2 -5 12 0 14 2 19 5 13 2 -7 2
-19 0 -25z m-3001 -15 c-3 -7 0 -13 7 -14 8 0 9 -2 1 -5 -19 -8 -5 -43 14 -37
10 3 4 -4 -13 -16 l-30 -21 27 0 c22 0 26 -4 21 -17 -4 -11 -8 -12 -11 -5 -2
7 -8 12 -13 12 -5 0 -4 -9 3 -19 7 -11 16 -17 20 -15 14 9 8 -13 -7 -26 -14
-12 -19 -7 -16 15 1 6 -7 0 -17 -11 -17 -20 -19 -20 -29 -5 -11 17 -10 92 1
110 4 6 2 11 -4 11 -6 0 -8 5 -5 10 5 8 11 7 21 -1 7 -6 11 -16 7 -22 -3 -6
-1 -7 5 -3 8 4 8 15 2 31 -6 16 -6 25 0 25 6 0 10 5 10 11 0 5 -4 8 -8 5 -5
-3 -9 1 -9 9 0 11 3 12 14 3 8 -6 12 -17 9 -25z m260 -9 c0 -13 -4 -20 -9 -17
-6 4 -7 -5 -3 -21 5 -19 3 -25 -4 -21 -14 9 -8 -17 7 -30 7 -5 11 -19 9 -30
-2 -11 1 -26 7 -33 5 -7 7 -16 3 -19 -4 -4 -12 -1 -17 7 -8 11 -12 12 -16 2
-7 -17 -23 -5 -16 13 3 9 -1 15 -9 15 -9 0 -14 12 -15 36 0 19 2 32 5 29 10
-10 29 79 20 96 -6 15 -4 15 15 6 14 -6 23 -19 23 -33z m1781 40 c-3 -3 -12
-4 -19 -1 -8 3 -5 6 6 6 11 1 17 -2 13 -5z m-1827 -25 c0 -5 -4 -9 -8 -9 -5 0
-9 7 -9 15 0 8 4 12 9 9 4 -3 8 -9 8 -15z m-290 -20 c0 -11 -4 -17 -10 -14 -5
3 -10 15 -10 26 0 11 5 17 10 14 6 -3 10 -15 10 -26z m1167 9 c-3 -8 -6 -5 -6
6 -1 11 2 17 5 13 3 -3 4 -12 1 -19z m-1720 -10 c-3 -8 -6 -5 -6 6 -1 11 2 17
5 13 3 -3 4 -12 1 -19z m1003 -4 c0 -14 -4 -23 -9 -20 -7 5 -8 23 -2 44 4 12
11 -3 11 -24z m-300 6 c0 -5 -2 -10 -4 -10 -3 0 -8 5 -11 10 -3 6 -1 10 4 10
6 0 11 -4 11 -10z m537 -22 c-3 -7 -5 -2 -5 12 0 14 2 19 5 13 2 -7 2 -19 0
-25z m63 28 c0 -3 -4 -8 -10 -11 -5 -3 -10 -1 -10 4 0 6 5 11 10 11 6 0 10 -2
10 -4z m-1385 -18 c27 -12 34 -38 10 -38 -7 0 -18 -7 -23 -15 -7 -14 -10 -13
-26 4 -14 15 -15 24 -6 40 13 25 12 24 45 9z m4074 -30 c-1 -46 -12 -81 -27
-86 -15 -5 -17 71 -2 99 16 29 30 23 29 -13z m-2259 -4 c0 -8 -4 -14 -10 -14
-5 0 -10 9 -10 21 0 11 5 17 10 14 6 -3 10 -13 10 -21z m-4105 -3 c3 -5 2 -12
-3 -15 -5 -3 -9 1 -9 9 0 17 3 19 12 6z m4046 -8 c6 -111 6 -113 -12 -113 -12
0 -16 5 -13 15 4 8 1 15 -5 15 -6 0 -11 14 -11 30 0 47 39 97 41 53z m-1661
-19 c0 -14 -4 -23 -10 -19 -5 3 -10 15 -10 26 0 10 5 19 10 19 6 0 10 -12 10
-26z m536 0 c-4 -14 -3 -23 2 -20 5 3 9 -1 9 -9 0 -20 -23 -26 -25 -7 -1 24 7
62 14 62 4 0 3 -12 0 -26z m691 -21 c-3 -10 -5 -2 -5 17 0 19 2 27 5 18 2 -10
2 -26 0 -35z m488 -22 c0 -27 -3 -53 -7 -57 -5 -4 -8 18 -8 49 0 32 3 57 8 57
4 0 7 -22 7 -49z m479 34 c-4 -8 -8 -15 -10 -15 -2 0 -4 7 -4 15 0 8 4 15 10
15 5 0 7 -7 4 -15z m1308 -13 c-8 -2 -7 -12 3 -32 17 -32 19 -50 7 -50 -4 0
-8 10 -9 22 -1 11 -7 24 -13 28 -13 8 -13 16 3 45 8 15 11 17 15 5 3 -7 0 -16
-6 -18z m-2513 -147 c1 -110 -2 -165 -10 -165 -7 0 -9 54 -8 165 1 91 5 165 9
165 4 0 8 -74 9 -165z m276 133 c4 -18 8 -44 9 -58 2 -14 8 -36 14 -50 l11
-25 1 25 c1 23 2 23 10 5 12 -29 12 -35 -4 -35 -21 0 -27 -27 -10 -41 10 -8
11 -16 5 -22 -5 -5 -7 -15 -4 -22 4 -12 -33 -32 -42 -23 -8 8 -11 278 -4 278
5 0 11 -15 14 -32z m1533 8 c-15 -5 -30 -17 -33 -25 -5 -13 -4 -14 6 -3 7 6
19 12 26 12 11 0 11 -4 1 -20 -7 -10 -14 -17 -17 -15 -2 3 -9 -2 -16 -11 -9
-13 -11 -11 -9 14 1 17 5 35 8 41 3 5 1 11 -6 14 -7 2 -5 3 5 2 9 -2 17 1 17
5 0 4 10 5 23 2 22 -6 21 -6 -5 -16z m-2888 -11 c0 -28 -15 -34 -24 -9 -10 25
-7 34 9 34 9 0 15 -9 15 -25z m2480 15 c0 -5 -2 -10 -4 -10 -3 0 -8 5 -11 10
-3 6 -1 10 4 10 6 0 11 -4 11 -10z m-1843 -51 c-4 -15 0 -23 13 -26 17 -5 18
-7 4 -20 -8 -9 -13 -22 -10 -29 3 -9 -1 -11 -12 -8 -14 4 -13 3 2 -6 10 -7 21
-8 25 -4 8 12 58 16 65 6 3 -5 -3 -17 -13 -26 -15 -14 -23 -14 -52 -4 -42 14
-50 26 -36 50 10 15 9 21 -3 28 -10 6 -11 10 -2 10 6 0 11 3 11 8 -3 17 1 42
7 42 4 0 4 -9 1 -21z m-1317 -34 c0 -12 -6 -27 -12 -34 -11 -10 -9 -14 5 -22
25 -15 67 -62 67 -76 0 -13 -25 -18 -65 -14 -31 3 -97 79 -90 105 15 51 28 75
43 78 25 6 52 -14 52 -37z m1013 25 c3 -11 1 -18 -4 -14 -5 3 -9 12 -9 20 0
20 7 17 13 -6z m2646 -57 c13 -8 22 -9 26 -3 3 6 -1 10 -9 10 -8 0 -20 8 -25
19 -9 16 -7 20 14 23 24 5 30 -10 10 -24 -5 -4 0 -6 12 -6 12 1 19 7 16 15 -3
7 0 13 5 13 6 0 12 -8 14 -17 3 -15 5 -15 21 2 18 17 18 17 15 -1 -2 -12 2
-18 10 -16 8 1 11 -2 7 -8 -3 -6 -10 -8 -15 -5 -4 3 -10 2 -13 -2 -2 -5 -2 -2
-1 5 6 24 -7 11 -17 -17 -7 -19 -25 -36 -55 -52 -39 -20 -43 -25 -30 -35 17
-12 23 -29 7 -19 -6 3 -8 -14 -7 -40 2 -24 0 -42 -4 -40 -5 3 -10 -1 -13 -7
-2 -7 -4 52 -5 132 0 100 2 136 8 115 5 -16 18 -36 29 -42z m-2219 37 c0 -5
-7 -7 -15 -4 -8 4 -15 8 -15 10 0 2 7 4 15 4 8 0 15 -4 15 -10z m998 -14 c-10
-7 -18 -25 -18 -40 0 -14 -5 -26 -10 -26 -6 0 -8 12 -4 28 10 47 13 52 31 52
17 -1 17 -1 1 -14z m697 -15 c2 -12 0 -19 -6 -16 -5 4 -9 16 -9 27 0 26 9 19
15 -11z m1805 9 c-28 -22 -40 -25 -40 -10 0 11 30 29 50 29 10 1 6 -6 -10 -19z
m-3364 -32 c-8 -57 -19 -64 -13 -8 6 53 6 50 13 50 3 0 3 -19 0 -42z m54 27
c0 -12 -19 -12 -23 0 -4 9 -1 12 9 8 7 -3 14 -7 14 -8z m1300 0 c0 -9 -9 -15
-22 -15 -21 0 -21 0 -2 15 24 18 24 18 24 0z m-1560 -10 c0 -8 -4 -15 -9 -15
-5 0 -11 7 -15 15 -3 9 0 15 9 15 8 0 15 -7 15 -15z m2933 -6 c12 -12 16 -19
10 -15 -7 4 -13 2 -13 -4 0 -6 -5 -8 -12 -4 -7 4 -8 3 -4 -4 4 -7 3 -12 -2
-12 -5 0 -9 -7 -9 -16 0 -15 2 -14 13 1 13 17 14 17 20 1 6 -15 8 -15 21 4 8
11 12 24 9 28 -2 4 0 14 6 22 8 12 9 12 4 -2 -6 -20 10 -34 17 -16 6 15 1
-318 -5 -344 -9 -38 -18 -29 -18 17 0 69 -10 50 -12 -23 -1 -34 -3 -62 -4 -62
-2 0 -13 33 -25 73 -11 39 -27 79 -35 88 -8 9 -14 27 -13 40 0 13 -6 46 -15
72 -10 30 -11 45 -4 41 8 -5 9 -1 5 10 -6 14 -3 17 9 12 14 -5 15 -4 4 9 -7 8
-10 21 -7 29 3 7 0 19 -6 25 -8 8 -7 11 5 11 9 0 18 9 21 20 7 25 13 25 40 -1z
m-6023 -9 c7 -14 7 -20 0 -20 -5 0 -10 8 -11 18 0 14 -2 14 -9 -3 -8 -18 -9
-18 -9 -2 -1 11 -6 15 -13 11 -7 -4 -8 -3 -4 4 11 18 34 14 46 -8z m6360 10
c0 -5 -5 -10 -11 -10 -5 0 -7 5 -4 10 3 6 8 10 11 10 2 0 4 -4 4 -10z m-3810
-10 c0 -5 -4 -10 -10 -10 -5 0 -10 5 -10 10 0 6 5 10 10 10 6 0 10 -4 10 -10z
m629 -18 c-5 -2 -7 -7 -4 -12 3 -4 -3 -14 -12 -21 -15 -12 -16 -12 -8 1 5 8 8
26 6 39 -2 20 -1 22 12 10 8 -8 11 -16 6 -17z m1638 -4 c-3 -7 -5 -2 -5 12 0
14 2 19 5 13 2 -7 2 -19 0 -25z m951 4 c6 -28 3 -63 -8 -80 -8 -14 -10 -14
-10 -2 -1 8 -3 29 -5 45 -8 53 12 85 23 37z m-3193 8 c-3 -5 -1 -10 6 -10 7 0
10 -3 6 -6 -9 -9 -28 6 -22 17 4 5 8 9 11 9 3 0 2 -4 -1 -10z m780 -29 c2 -12
0 -19 -6 -16 -5 4 -9 -3 -9 -13 0 -11 -8 -22 -17 -26 -10 -3 -25 -9 -33 -12
-9 -3 -11 -2 -5 3 6 4 11 19 13 32 3 29 21 53 33 45 5 -3 9 0 9 7 0 18 10 5
15 -20z m1202 23 c-3 -3 -12 -4 -19 -1 -8 3 -5 6 6 6 11 1 17 -2 13 -5z m939
-20 c-5 -12 -2 -15 11 -10 10 4 14 4 11 0 -8 -8 14 -34 25 -27 4 2 7 -1 7 -6
0 -6 -7 -11 -16 -11 -8 0 -13 -4 -10 -9 9 -14 -16 -19 -41 -10 -13 5 -23 5
-23 -1 0 -4 6 -10 13 -13 6 -2 1 -2 -11 0 -15 2 -21 0 -17 -6 3 -7 0 -8 -10
-5 -8 4 -22 0 -31 -7 -13 -10 -17 -10 -25 2 -6 10 -3 15 11 17 13 2 17 8 13
19 -5 13 -3 14 13 5 13 -7 26 -6 46 4 15 8 28 12 28 9 0 -4 5 -3 11 0 6 5 4
11 -6 19 -14 10 -13 46 2 46 3 0 2 -7 -1 -16z m-4013 -50 c9 2 17 -1 17 -9 0
-20 -23 -33 -53 -28 -15 2 -27 0 -26 -4 3 -17 -2 -24 -12 -18 -7 5 -4 14 7 26
10 11 12 19 6 19 -16 0 -15 47 1 53 6 2 19 -7 27 -20 9 -15 22 -22 33 -19z
m1597 25 c0 -15 -18 -19 -23 -6 -3 8 1 14 9 14 8 0 14 -4 14 -8z m115 1 c-3
-5 -2 -18 3 -27 12 -24 0 -63 -14 -42 -14 23 -6 79 12 79 3 0 2 -4 -1 -10z
m3052 -32 c-3 -7 -5 -2 -5 12 0 14 2 19 5 13 2 -7 2 -19 0 -25z m-1702 2 c10
-11 26 -22 37 -26 18 -5 18 -6 -1 -37 -10 -18 -22 -51 -26 -74 -8 -53 -18 -60
-34 -25 -7 15 -31 56 -53 90 -34 52 -39 65 -27 73 8 5 22 7 32 5 9 -2 17 0 17
5 0 16 37 9 55 -11z m-1157 -45 c-1 -32 -18 -41 -18 -10 0 8 -8 12 -18 10 -11
-2 -19 3 -19 10 0 8 5 11 11 7 6 -3 18 -7 26 -9 13 -1 13 0 0 10 -24 19 -24
40 0 27 14 -7 19 -20 18 -45z m329 33 c-3 -8 -6 -5 -6 6 -1 11 2 17 5 13 3 -3
4 -12 1 -19z m1061 -20 c7 -26 7 -41 -1 -53 -10 -12 -12 -4 -14 41 -2 63 0 66
15 12z m-3416 4 c5 -5 3 -13 -6 -21 -11 -10 -19 -9 -35 1 -33 20 -32 34 1 32
17 -1 34 -6 40 -12z m1180 -27 c-2 -14 -6 -25 -8 -25 -2 0 -4 11 -4 25 0 14 4
25 9 25 4 0 6 -11 3 -25z m764 14 c3 -6 1 -16 -5 -22 -9 -9 -10 -7 -5 7 5 13
4 17 -4 12 -6 -3 -13 -2 -17 4 -3 5 1 10 9 10 8 0 18 -5 22 -11z m411 -21 c-3
-7 -5 -2 -5 12 0 14 2 19 5 13 2 -7 2 -19 0 -25z m-2097 -16 c0 -17 4 -22 14
-19 9 4 16 -4 20 -24 3 -18 12 -29 22 -29 13 0 15 -6 9 -27 -3 -16 -10 -29
-13 -31 -4 -1 -7 -18 -6 -37 1 -19 -2 -38 -7 -40 -5 -3 3 -19 18 -35 29 -34
93 -44 93 -15 0 9 9 15 25 15 23 0 25 -3 19 -27 -4 -16 -13 -38 -21 -49 -8
-12 -16 -41 -19 -65 -3 -23 -9 -50 -14 -59 -5 -10 -6 -21 -2 -25 4 -4 -3 -3
-15 4 -14 7 -24 7 -28 1 -3 -5 -13 -6 -22 -3 -12 5 -14 3 -8 -8 7 -11 6 -12
-7 -2 -8 7 -18 10 -21 7 -13 -14 -57 8 -78 38 -13 18 -17 28 -8 23 11 -6 12
-5 2 6 -7 7 -13 25 -13 41 0 33 -37 59 -51 37 -13 -21 -11 38 1 62 13 23 33
25 50 4 10 -13 15 -13 40 0 l28 15 -19 37 c-13 26 -16 39 -8 44 16 9 3 55 -21
79 -25 25 -31 25 -58 0 -31 -29 -36 -8 -10 47 28 58 34 63 76 61 27 -2 32 -6
32 -26z m1740 8 c0 -5 -5 -10 -11 -10 -5 0 -7 5 -4 10 3 6 8 10 11 10 2 0 4
-4 4 -10z m-1974 -52 c10 -13 24 -32 31 -44 11 -20 10 -20 -28 -10 -40 10 -60
40 -44 65 9 16 19 13 41 -11z m1958 14 c3 -5 -1 -9 -9 -9 -8 0 -15 4 -15 9 0
4 4 8 9 8 6 0 12 -4 15 -8z m136 4 c0 -3 -4 -8 -10 -11 -5 -3 -10 -1 -10 4 0
6 5 11 10 11 6 0 10 -2 10 -4z m-80 -12 c0 -8 -19 -13 -24 -6 -3 5 1 9 9 9 8
0 15 -2 15 -3z m1397 0 c-3 -3 -12 -4 -19 -1 -8 3 -5 6 6 6 11 1 17 -2 13 -5z
m39 -31 c-2 -3 -8 -5 -13 -5 -4 0 -15 -4 -24 -9 -12 -6 -21 -3 -30 8 -10 12
-10 15 -1 9 7 -4 12 -2 12 6 0 11 2 10 9 0 6 -11 10 -10 15 3 5 14 9 15 21 5
9 -7 13 -15 11 -17z m-1666 8 c0 -17 -18 -21 -24 -6 -3 9 0 15 9 15 8 0 15 -4
15 -9z m310 -41 c0 -27 -4 -50 -10 -50 -11 0 -14 59 -4 84 10 27 14 18 14 -34z
m1120 31 c0 -6 -4 -13 -10 -16 -5 -3 -10 1 -10 9 0 9 5 16 10 16 6 0 10 -4 10
-9z m1740 -16 c0 -8 -2 -15 -4 -15 -2 0 -6 7 -10 15 -3 8 -1 15 4 15 6 0 10
-7 10 -15z m-1575 -5 c3 -5 1 -10 -4 -10 -6 0 -11 5 -11 10 0 6 2 10 4 10 3 0
8 -4 11 -10z m-1655 -10 c13 -8 12 -10 -4 -10 -15 0 -17 -3 -8 -12 8 -8 15 -8
27 2 12 10 15 10 15 -2 0 -10 -8 -14 -22 -13 -13 1 -28 3 -35 4 -6 0 -9 10 -6
21 6 22 11 24 33 10z m1668 -47 c-2 -9 -10 -19 -18 -21 -12 -4 -13 -3 -3 10 7
8 10 18 6 21 -3 4 -1 7 6 7 7 0 11 -8 9 -17z m575 -8 c-7 -21 -13 -19 -13 6 0
11 4 18 10 14 5 -3 7 -12 3 -20z m974 3 c-3 -8 -6 -5 -6 6 -1 11 2 17 5 13 3
-3 4 -12 1 -19z m-4785 -20 c-7 -7 -12 -8 -12 -2 0 14 12 26 19 19 2 -3 -1
-11 -7 -17z m1179 -8 c0 -8 2 -23 4 -33 2 -11 1 -16 -2 -13 -4 3 -12 1 -20 -5
-10 -9 -17 -8 -29 2 -9 7 -41 14 -71 15 -85 3 -90 27 -5 28 26 1 56 6 67 13
27 15 55 12 56 -7z m-716 -36 c-15 -44 -27 -56 -49 -48 -31 12 9 96 42 87 17
-4 18 -8 7 -39z m3875 22 c0 -3 -4 -8 -10 -11 -5 -3 -10 -1 -10 4 0 6 5 11 10
11 6 0 10 -2 10 -4z m-3061 -25 c8 -14 7 -20 -2 -24 -14 -5 -40 27 -30 37 11
11 22 6 32 -13z m-136 -32 c29 0 30 -1 9 -9 -28 -12 -52 -3 -51 19 0 10 2 11
6 4 2 -7 19 -13 36 -14z m2672 -18 c2 -11 0 -21 -6 -21 -5 0 -9 12 -9 27 0 30
9 27 15 -6z m-3965 -52 c0 -5 5 -7 10 -4 6 3 10 2 10 -4 0 -6 6 -8 14 -5 8 3
17 1 21 -5 3 -6 15 -11 25 -11 16 0 18 -7 16 -51 -1 -31 -8 -54 -17 -59 -8 -6
-15 -6 -17 0 -2 6 -8 8 -13 4 -5 -3 -9 -1 -9 5 0 6 -10 9 -22 8 -13 -1 -40 8
-60 20 -36 21 -37 22 -26 60 6 21 15 41 22 45 17 11 46 9 46 -3z m4530 -16 c0
-10 -4 -14 -8 -8 -4 6 -11 13 -16 18 -5 4 -2 7 7 7 10 0 17 -8 17 -17z m-917
-73 c10 -10 9 -11 -2 -5 -10 6 -12 4 -7 -4 5 -7 12 -9 19 -3 7 5 44 7 82 6 94
-5 97 -5 90 -22 -4 -12 -3 -13 10 -2 12 10 15 10 15 -3 0 -8 -6 -18 -12 -20
-8 -3 -6 -6 5 -6 10 -1 17 -9 17 -20 0 -14 8 -21 28 -24 21 -3 19 -4 -12 -6
-28 -1 -37 3 -33 12 4 10 -3 12 -23 9 -15 -2 -31 1 -34 7 -4 6 -19 11 -34 11
-47 0 -72 11 -72 31 0 11 -4 19 -10 19 -5 0 -10 -4 -10 -10 0 -5 -4 -10 -8
-10 -11 0 -62 43 -62 53 0 11 39 2 53 -13z m-2638 -11 c0 -20 -38 -17 -41 3
-1 13 4 17 19 14 12 -2 22 -9 22 -17z m2910 -9 c-19 -21 -55 -27 -55 -10 0 10
13 14 37 11 6 -1 14 3 18 9 3 5 9 10 12 10 3 0 -2 -9 -12 -20z m233 -54 c-2
-20 -5 -22 -19 -13 -16 10 -16 12 -1 24 22 16 22 17 20 -11z m-192 -21 c-7
-20 -32 -19 -40 0 -4 10 2 19 17 24 24 9 33 0 23 -24z m-3741 -5 c10 -11 24
-20 32 -20 7 0 14 -12 15 -30 0 -16 1 -36 2 -42 1 -7 -8 -12 -19 -10 -11 1
-28 3 -37 4 -9 1 -15 5 -12 9 2 4 -1 9 -7 11 -6 2 -12 16 -12 31 -1 15 -8 27
-14 27 -14 0 -18 22 -6 33 12 13 40 7 58 -13z m4195 -5 c11 -13 10 -14 -4 -9
-9 3 -16 10 -16 15 0 13 6 11 20 -6z m-598 -21 c5 -4 2 -14 -9 -25 -50 -51
-50 -63 0 -47 18 5 60 12 95 15 55 5 62 3 63 -13 9 -187 8 -233 -1 -239 -7 -4
-7 -12 0 -25 7 -13 7 -21 -1 -26 -8 -5 -8 -9 1 -14 10 -6 10 -12 -1 -27 -12
-16 -20 -18 -46 -11 -28 7 -33 13 -33 39 0 26 3 29 20 24 13 -4 20 -2 20 7 0
10 2 10 9 -1 6 -9 11 -10 15 -3 8 14 -33 37 -59 33 l-20 -3 20 17 c20 16 20
16 -3 5 -20 -10 -22 -16 -17 -58 2 -26 2 -41 -1 -34 -3 6 -10 10 -15 6 -5 -3
-9 0 -9 6 0 6 -4 8 -10 5 -5 -3 -7 0 -4 8 3 8 -2 20 -11 27 -8 7 -15 10 -15 6
0 -3 -9 3 -20 14 -12 12 -18 26 -14 32 4 6 3 8 -3 5 -6 -4 -19 5 -28 20 -10
14 -29 37 -44 50 l-26 24 31 -15 c18 -9 50 -18 73 -22 26 -4 38 -10 34 -18 -4
-6 1 -5 10 3 9 7 25 11 36 8 10 -2 25 -1 32 4 14 9 6 10 -61 13 -14 1 -34 6
-45 12 -11 7 -37 14 -59 17 -21 3 -43 10 -48 15 -6 6 -17 8 -26 5 -11 -5 -13
-3 -6 8 10 16 11 20 13 55 1 22 5 25 30 21 17 -3 35 -8 40 -12 8 -4 7 2 0 19
-6 13 -21 27 -33 30 -32 8 -60 32 -52 44 7 11 158 8 178 -4z m-2834 -32 c5
-17 -13 -15 -27 2 -10 12 -9 14 5 12 10 -2 20 -8 22 -14z m560 6 c10 -13 -1
-58 -14 -58 -4 0 -16 7 -25 16 -14 13 -16 21 -8 35 11 22 32 25 47 7z m-707
-15 c10 -11 10 -14 2 -9 -8 4 -13 2 -13 -5 0 -10 -3 -10 -11 -2 -6 6 -8 16 -5
22 9 14 11 14 27 -6z m3249 -13 c0 -5 -4 -10 -10 -10 -5 0 -10 5 -10 10 0 6 5
10 10 10 6 0 10 -4 10 -10z m336 -27 c-3 -4 -6 -1 -6 5 0 7 -5 12 -11 12 -5 0
-8 -4 -5 -8 3 -5 -1 -9 -8 -9 -7 0 -13 6 -13 13 0 7 4 11 8 8 4 -2 11 1 15 7
5 8 10 6 16 -5 6 -10 7 -20 4 -23z m-3659 -39 c26 -26 26 -27 8 -40 -10 -8
-24 -14 -31 -14 -6 0 -14 -7 -18 -15 -8 -23 -26 -18 -23 7 2 18 -3 22 -28 22
-63 2 -21 65 43 66 13 0 35 -12 49 -26z m113 16 c0 -5 -2 -10 -4 -10 -3 0 -8
5 -11 10 -3 6 -1 10 4 10 6 0 11 -4 11 -10z m64 -36 c2 -7 -5 -9 -20 -6 -13 2
-21 9 -18 14 4 6 -2 7 -15 3 -20 -6 -21 -5 -10 13 12 19 14 19 35 4 13 -10 25
-22 28 -28z m3461 -2 c-3 -3 -11 0 -18 7 -9 10 -8 11 6 5 10 -3 15 -9 12 -12z
m-2416 -8 c7 -7 10 -84 3 -84 -13 0 -63 81 -56 91 5 8 41 4 53 -7z m-379 -13
c0 -20 -13 -35 -23 -25 -7 8 4 44 14 44 5 0 9 -9 9 -19z m-1970 -26 c-7 -9
-15 -13 -17 -11 -7 7 7 26 19 26 6 0 6 -6 -2 -15z m3923 3 c-2 -5 -12 -8 -21
-9 -11 0 -12 -3 -4 -6 6 -2 12 -9 12 -14 0 -4 -7 -6 -15 -3 -25 10 -18 39 9
39 13 0 22 -3 19 -7z m-2500 -61 c-2 -18 -9 -36 -14 -41 -5 -6 -9 -22 -9 -37
0 -24 -12 -41 -30 -45 -6 -1 -35 -12 -67 -24 -17 -7 -21 -6 -17 5 3 7 1 23 -6
34 -6 12 -7 21 -2 21 4 0 17 7 28 15 19 14 19 14 -2 9 -15 -4 -21 -1 -21 11 0
17 41 40 64 36 8 -1 10 4 7 14 -5 11 -2 14 10 9 12 -5 16 0 16 18 0 34 10 41
31 22 12 -11 16 -25 12 -47z m382 53 c3 -5 24 -14 45 -20 26 -7 41 -17 42 -28
7 -72 -4 -81 -50 -41 -18 16 -37 27 -42 24 -5 -3 -17 6 -26 20 -13 20 -14 28
-4 40 14 17 26 19 35 5z m-505 -24 c0 -3 -4 -8 -10 -11 -5 -3 -10 -1 -10 4 0
6 5 11 10 11 6 0 10 -2 10 -4z m675 -26 c-3 -5 -10 -10 -16 -10 -5 0 -9 5 -9
10 0 6 7 10 16 10 8 0 12 -4 9 -10z m2071 -35 c-3 -8 0 -15 7 -18 6 -2 3 -6
-8 -9 -17 -4 -20 0 -19 31 2 48 3 49 15 28 6 -10 8 -24 5 -32z m-91 16 c3 -5
1 -12 -5 -16 -5 -3 -10 1 -10 9 0 18 6 21 15 7z m412 -31 c10 -27 6 -143 -5
-136 -4 2 -9 44 -9 93 -1 48 0 81 3 73 3 -8 8 -22 11 -30z m-254 -23 c-3 -5 4
-11 15 -14 11 -2 28 -22 37 -44 10 -21 22 -36 26 -33 5 3 9 0 9 -6 0 -8 -10
-10 -27 -6 -26 6 -26 5 -10 -8 12 -9 14 -16 8 -21 -6 -3 -11 -1 -11 4 0 6 -3
10 -7 9 -13 -2 -45 13 -95 45 -47 30 -62 44 -34 34 10 -4 13 0 11 14 -2 11 -1
18 3 15 4 -2 16 8 26 22 11 14 14 22 8 18 -7 -4 -12 -1 -12 9 0 14 5 13 29 -7
15 -13 26 -27 24 -31z m-4272 18 c5 4 7 11 4 16 -3 5 1 6 9 3 9 -3 16 -10 16
-15 0 -5 7 -9 15 -9 9 0 12 -6 9 -17 -5 -16 -4 -16 6 0 10 15 8 21 -7 32 -17
13 -16 14 7 8 14 -3 31 -11 39 -17 8 -6 24 -9 36 -8 13 2 26 -2 30 -7 3 -7 0
-8 -9 -5 -10 4 -16 1 -16 -8 0 -8 -7 -23 -15 -34 -11 -14 -14 -15 -9 -3 8 24
-11 32 -30 13 -14 -14 -19 -14 -33 -2 -12 9 -15 9 -9 1 4 -7 2 -13 -3 -13 -6
0 -11 8 -11 18 0 13 -2 14 -9 3 -6 -9 -11 -10 -15 -2 -4 6 -2 11 3 11 6 0 11
10 11 22 0 19 -1 20 -17 5 -14 -11 -21 -12 -29 -3 -6 6 -8 18 -6 25 4 11 7 10
14 -3 5 -9 14 -14 19 -11z m121 11 c7 4 8 2 4 -5 -9 -13 -26 -5 -25 12 0 9 2
8 6 -1 2 -6 10 -9 15 -6z m1998 -21 c0 -14 -4 -25 -9 -25 -4 0 -6 11 -3 25 2
14 6 25 8 25 2 0 4 -11 4 -25z m403 11 c4 -11 -6 -15 -44 -18 -27 -1 -49 0
-49 5 0 4 18 7 41 7 24 0 38 4 34 10 -3 6 -2 10 3 10 6 0 12 -6 15 -14z m-299
-24 c3 -5 -1 -9 -9 -9 -8 0 -12 4 -9 9 3 4 7 8 9 8 2 0 6 -4 9 -8z m327 -32
c-18 -10 -71 1 -71 15 0 10 9 11 41 3 22 -6 36 -14 30 -18z m-417 -32 c6 -5 3
-8 -10 -8 -18 0 -20 4 -16 28 5 22 7 24 10 7 2 -11 9 -23 16 -27z m-317 -15
c-3 -10 -5 -2 -5 17 0 19 2 27 5 18 2 -10 2 -26 0 -35z m3114 0 c-9 -16 -10
-16 -11 -1 0 9 3 25 7 35 7 16 8 17 11 1 2 -10 -1 -25 -7 -35z m-2353 -2 c2
-13 -3 -24 -15 -28 -23 -9 -43 -28 -43 -42 0 -6 -4 -11 -9 -11 -10 0 -22 77
-14 96 3 8 18 12 41 10 29 -3 38 -8 40 -25z m3142 23 c0 -8 -19 -13 -24 -6 -3
5 1 9 9 9 8 0 15 -2 15 -3z m-2990 -8 c0 -3 -4 -8 -10 -11 -5 -3 -10 -1 -10 4
0 6 5 11 10 11 6 0 10 -2 10 -4z m-1025 -15 c3 -5 1 -12 -5 -16 -5 -3 -10 1
-10 9 0 18 6 21 15 7z m-45 -28 c0 -19 -3 -24 -10 -17 -6 6 -8 18 -4 27 9 24
14 21 14 -10z m139 5 c0 -13 -3 -30 -7 -39 -6 -14 -9 -15 -19 -3 -8 8 -9 15
-3 19 6 3 10 15 10 26 0 10 5 19 10 19 6 0 10 -10 9 -22z m-2246 -10 c-4 -7
-6 -20 -5 -30 2 -9 -1 -19 -6 -22 -13 -8 -10 47 3 56 15 11 17 10 8 -4z m25
-8 c-7 -10 -14 -17 -17 -15 -4 4 18 35 25 35 2 0 -1 -9 -8 -20z m5427 6 c16
-12 17 -16 6 -30 -11 -13 -17 -14 -28 -5 -11 10 -12 8 -6 -7 6 -17 5 -17 -11
-5 -11 9 -13 18 -7 24 5 5 7 16 4 23 -7 18 18 18 42 0z m-3308 -18 c-3 -8 -6
-5 -6 6 -1 11 2 17 5 13 3 -3 4 -12 1 -19z m7173 6 c0 -8 -5 -12 -10 -9 -6 4
-8 11 -5 16 9 14 15 11 15 -7z m-7033 -36 c-3 -7 -5 -2 -5 12 0 14 2 19 5 13
2 -7 2 -19 0 -25z m-1712 2 c-3 -4 1 -11 7 -14 7 -3 2 -3 -12 0 -14 4 -29 10
-34 15 -5 4 1 5 14 2 17 -5 21 -3 15 7 -5 9 -4 11 4 6 6 -4 9 -11 6 -16z
m4369 5 c-7 -17 -34 -21 -34 -4 0 5 4 8 9 4 5 -3 12 -1 16 5 9 15 15 12 9 -5z
m-2797 -17 c-3 -8 -6 -5 -6 6 -1 11 2 17 5 13 3 -3 4 -12 1 -19z m93 -8 c0 -5
-2 -10 -4 -10 -3 0 -8 5 -11 10 -3 6 -1 10 4 10 6 0 11 -4 11 -10z"/>
<path d="M4300 2944 c0 -8 -4 -12 -10 -9 -6 3 -7 -1 -4 -9 6 -15 70 -34 80
-24 2 3 -5 17 -17 31 -23 30 -49 36 -49 11z"/>
<path d="M5250 2846 c0 -2 11 -6 25 -8 13 -3 22 -1 19 3 -5 9 -44 13 -44 5z"/>
<path d="M5930 2745 c0 -8 2 -15 4 -15 2 0 6 7 10 15 3 8 1 15 -4 15 -6 0 -10
-7 -10 -15z"/>
<path d="M5577 2735 c3 -8 9 -12 14 -9 12 7 11 11 -5 17 -10 4 -13 1 -9 -8z"/>
<path d="M6350 2735 c0 -8 5 -15 10 -15 6 0 10 7 10 15 0 8 -4 15 -10 15 -5 0
-10 -7 -10 -15z"/>
<path d="M6660 2729 c0 -5 -6 -7 -12 -4 -7 4 -4 -1 6 -9 12 -9 22 -12 26 -7 3
6 11 6 20 1 19 -13 60 -13 60 -1 0 6 -4 13 -10 16 -5 3 -10 1 -10 -4 0 -6 -5
-11 -11 -11 -5 0 -7 5 -3 11 4 7 0 9 -14 5 -11 -4 -23 -2 -27 4 -8 13 -25 13
-25 -1z"/>
<path d="M7240 2729 c0 -5 5 -7 10 -4 6 3 10 8 10 11 0 2 -4 4 -10 4 -5 0 -10
-5 -10 -11z"/>
<path d="M7646 2725 c-11 -8 -14 -15 -8 -15 7 0 12 -7 12 -15 0 -8 7 -15 15
-15 8 0 15 5 15 10 0 6 -5 10 -11 10 -6 0 -8 9 -4 20 7 24 6 24 -19 5z"/>
<path d="M7140 2715 c0 -8 4 -15 9 -15 5 0 14 7 21 15 10 13 9 15 -9 15 -12 0
-21 -6 -21 -15z"/>
<path d="M7329 2722 c-14 -6 -14 -9 4 -27 19 -20 19 -20 12 4 -5 18 -4 22 5
16 9 -5 11 -4 6 3 -4 7 -8 12 -9 11 -1 0 -9 -3 -18 -7z"/>
<path d="M5895 2710 c4 -6 11 -8 16 -5 14 9 11 15 -7 15 -8 0 -12 -5 -9 -10z"/>
<path d="M6246 2712 c-3 -5 1 -9 9 -9 8 0 15 4 15 9 0 4 -4 8 -9 8 -6 0 -12
-4 -15 -8z"/>
<path d="M5580 2699 c0 -5 5 -7 10 -4 6 3 10 8 10 11 0 2 -4 4 -10 4 -5 0 -10
-5 -10 -11z"/>
<path d="M5810 2695 c-8 -10 -9 -15 -2 -15 6 0 9 -8 6 -17 -5 -15 -4 -15 4 -3
6 8 8 18 5 23 -3 5 1 13 8 18 8 5 9 9 3 9 -6 0 -17 -7 -24 -15z"/>
<path d="M5613 2685 c0 -7 6 -11 14 -8 7 3 13 6 13 8 0 2 -6 5 -13 8 -8 3 -14
-1 -14 -8z"/>
<path d="M6155 2690 c-3 -5 1 -10 9 -10 9 0 16 5 16 10 0 6 -4 10 -9 10 -6 0
-13 -4 -16 -10z"/>
<path d="M6065 2680 c-4 -6 -11 -8 -16 -5 -5 4 -9 1 -9 -4 0 -15 11 -13 34 4
11 8 15 15 9 15 -7 0 -15 -5 -18 -10z"/>
<path d="M7125 2670 c-3 -5 -1 -10 4 -10 6 0 11 5 11 10 0 6 -2 10 -4 10 -3 0
-8 -4 -11 -10z"/>
<path d="M5555 2660 c3 -5 -1 -10 -9 -10 -9 0 -16 -4 -16 -10 0 -13 43 4 48
18 2 7 -4 12 -13 12 -9 0 -13 -4 -10 -10z"/>
<path d="M6225 2650 c3 -5 8 -10 11 -10 2 0 4 5 4 10 0 6 -5 10 -11 10 -5 0
-7 -4 -4 -10z"/>
<path d="M6278 2653 c7 -3 16 -2 19 1 4 3 -2 6 -13 5 -11 0 -14 -3 -6 -6z"/>
<path d="M5905 2620 c-12 -13 -28 -19 -49 -17 -23 1 -31 -2 -33 -18 -3 -18 -3
-18 7 -2 6 9 16 17 23 17 7 0 6 -4 -3 -10 -11 -8 -3 -9 28 -6 23 3 42 1 42 -4
0 -14 23 -6 58 20 23 17 28 26 20 32 -21 13 -50 10 -42 -4 6 -10 4 -10 -7 0
-18 16 -23 15 -44 -8z"/>
<path d="M5630 2623 c0 -5 4 -14 9 -21 7 -11 9 -11 14 1 3 8 3 18 0 21 -9 8
-23 7 -23 -1z"/>
<path d="M6095 2598 c-34 -19 -65 -57 -59 -73 5 -11 9 -12 19 -2 7 7 12 16 12
21 -3 12 51 26 70 19 11 -4 14 -2 9 5 -4 7 -14 12 -21 12 -9 0 -12 6 -9 15 7
18 5 18 -21 3z"/>
<path d="M5605 2590 c-3 -5 1 -10 10 -10 9 0 13 5 10 10 -3 6 -8 10 -10 10 -2
0 -7 -4 -10 -10z"/>
<path d="M5760 2589 c0 -5 5 -7 10 -4 6 3 10 8 10 11 0 2 -4 4 -10 4 -5 0 -10
-5 -10 -11z"/>
<path d="M7546 2591 c-3 -5 1 -11 9 -14 9 -4 12 -1 8 9 -6 16 -10 17 -17 5z"/>
<path d="M7280 2562 c0 -5 7 -13 16 -16 10 -4 14 -1 12 6 -5 15 -28 23 -28 10z"/>
<path d="M7320 2555 c0 -9 5 -15 11 -13 6 2 11 8 11 13 0 5 -5 11 -11 13 -6 2
-11 -4 -11 -13z"/>
<path d="M5920 2542 c0 -4 5 -13 12 -20 9 -9 9 -12 -2 -12 -17 0 -4 -13 16
-16 10 -2 14 3 10 13 -3 8 -6 21 -6 29 0 8 -7 14 -15 14 -8 0 -15 -4 -15 -8z"/>
<path d="M6005 2540 c3 -5 8 -10 11 -10 2 0 4 5 4 10 0 6 -5 10 -11 10 -5 0
-7 -4 -4 -10z"/>
<path d="M5465 2510 c-3 -5 1 -10 10 -10 9 0 13 5 10 10 -3 6 -8 10 -10 10 -2
0 -7 -4 -10 -10z"/>
<path d="M7319 2507 c8 -10 19 -16 25 -14 6 2 17 -3 24 -12 8 -9 11 -11 8 -4
-4 6 0 14 6 16 10 4 10 8 -1 16 -9 6 -21 6 -31 1 -11 -6 -22 -5 -30 3 -12 10
-12 9 -1 -6z"/>
<path d="M7506 2503 c2 -7 -4 -13 -14 -13 -16 -1 -16 -1 1 -11 26 -15 21 -28
-10 -24 -16 2 -22 2 -15 -1 10 -5 10 -9 1 -20 -10 -12 -9 -13 5 -8 9 3 16 10
16 16 0 5 4 7 9 3 5 -3 12 -1 16 4 3 6 23 2 47 -9 23 -10 46 -16 50 -14 4 3
18 -2 30 -10 14 -10 26 -12 33 -6 7 6 21 4 38 -5 26 -14 55 -18 92 -16 19 2
19 2 -2 20 -23 19 -21 31 4 31 8 0 11 -5 8 -10 -4 -6 -2 -17 5 -25 8 -10 8
-19 0 -34 -10 -20 -13 -20 -40 -6 -36 19 -41 19 -34 0 3 -8 9 -14 12 -13 4 0
10 -1 15 -2 9 -3 41 -7 70 -9 14 0 29 -11 37 -25 7 -14 19 -27 27 -30 19 -8
58 15 58 34 0 12 13 15 57 15 31 0 59 3 63 7 3 3 -10 6 -31 6 -20 0 -40 6 -45
14 -5 7 -9 9 -9 4 0 -5 -8 -2 -17 5 -10 7 -15 9 -11 5 10 -11 -11 -38 -23 -30
-5 3 -6 -3 -2 -13 5 -14 2 -14 -16 5 -12 12 -31 22 -42 22 -11 0 -24 10 -29
23 -6 12 -15 30 -22 39 -10 14 -9 21 6 37 20 22 15 51 -8 51 -7 0 -17 -8 -20
-17 -6 -15 -8 -15 -16 -3 -6 8 -10 11 -10 6 0 -5 8 -19 17 -30 10 -12 14 -18
9 -14 -5 4 -17 3 -27 -3 -11 -5 -19 -6 -19 -2 0 4 -15 9 -33 10 -20 2 -27 -1
-19 -6 10 -6 7 -10 -12 -13 -14 -3 -26 -1 -26 4 0 5 -5 6 -10 3 -6 -4 -8 -11
-5 -16 4 -5 -1 -9 -11 -9 -11 0 -15 6 -12 18 4 12 -1 17 -18 18 -16 1 -21 -2
-17 -13 5 -13 3 -13 -16 -2 -11 8 -21 17 -21 21 0 4 -9 5 -20 3 -22 -4 -28 20
-7 28 6 3 2 6 -10 6 -12 1 -23 4 -26 9 -2 4 -2 1 -1 -5z"/>
<path d="M5294 2491 c0 -11 5 -17 13 -14 10 4 11 9 2 19 -15 18 -15 18 -15 -5z"/>
<path d="M5335 2490 c-3 -6 1 -7 9 -4 18 7 21 14 7 14 -6 0 -13 -4 -16 -10z"/>
<path d="M7632 2488 c2 -5 8 -9 13 -9 5 0 11 4 13 9 1 5 -4 9 -13 9 -9 0 -14
-4 -13 -9z"/>
<path d="M6118 2483 c6 -2 18 -2 25 0 6 3 1 5 -13 5 -14 0 -19 -2 -12 -5z"/>
<path d="M6843 2479 c-5 -5 -29 -12 -53 -14 -52 -5 -58 -10 -38 -32 8 -10 18
-26 21 -36 5 -13 13 -16 33 -11 14 4 43 7 65 8 25 0 39 5 39 14 0 7 -6 12 -14
10 -8 -2 -15 1 -15 7 0 5 -8 13 -18 17 -16 6 -16 7 5 14 18 5 20 9 11 20 -14
17 -22 17 -36 3z"/>
<path d="M7922 2478 c-14 -14 -16 -28 -3 -28 5 0 11 9 14 20 6 23 5 24 -11 8z"/>
<path d="M5750 2459 c0 -5 -4 -8 -8 -5 -5 3 -9 -1 -9 -9 0 -17 30 -30 35 -16
2 6 9 9 15 5 7 -3 4 1 -5 9 -10 8 -15 17 -11 20 3 4 1 7 -5 7 -7 0 -12 -5 -12
-11z"/>
<path d="M5485 2450 c-3 -5 -1 -10 4 -10 6 0 11 5 11 10 0 6 -2 10 -4 10 -3 0
-8 -4 -11 -10z"/>
<path d="M7317 2453 c-15 -14 -5 -23 26 -22 21 1 25 3 12 6 -11 3 -23 9 -26
14 -3 5 -8 6 -12 2z"/>
<path d="M7380 2444 c8 -10 15 -20 16 -22 1 -2 5 1 8 7 4 5 -4 15 -16 22 -22
12 -22 11 -8 -7z"/>
<path d="M7426 2448 c3 -5 10 -6 15 -3 13 9 11 12 -6 12 -8 0 -12 -4 -9 -9z"/>
<path d="M7127 2427 c-7 -20 4 -37 23 -37 13 0 17 5 13 19 -6 23 -29 35 -36
18z"/>
<path d="M5524 2408 c-9 -14 -2 -16 26 -8 25 6 25 6 3 12 -13 3 -26 2 -29 -4z"/>
<path d="M6940 2410 c-13 -8 -11 -11 8 -16 12 -4 22 -11 22 -16 0 -13 18 0 30
23 9 17 7 19 -17 19 -15 0 -35 -5 -43 -10z"/>
<path d="M5916 2403 c-3 -4 -6 -11 -6 -17 0 -6 5 -4 10 4 5 8 10 10 10 5 0 -6
-5 -16 -12 -23 -9 -9 -5 -12 18 -11 16 0 24 3 17 5 -7 3 -10 11 -7 18 5 14
-20 29 -30 19z"/>
<path d="M5861 2387 c-6 -6 -11 -15 -11 -21 0 -6 5 -5 12 2 15 15 32 16 23 2
-3 -5 -1 -10 4 -10 16 0 13 27 -3 33 -7 3 -19 0 -25 -6z"/>
<path d="M5750 2380 c0 -5 5 -10 10 -10 6 0 10 5 10 10 0 6 -4 10 -10 10 -5 0
-10 -4 -10 -10z"/>
<path d="M5805 2380 c3 -5 11 -10 16 -10 6 0 7 5 4 10 -3 6 -11 10 -16 10 -6
0 -7 -4 -4 -10z"/>
<path d="M8078 2363 c6 -2 18 -2 25 0 6 3 1 5 -13 5 -14 0 -19 -2 -12 -5z"/>
<path d="M6625 2331 c-70 -6 -70 -6 -34 -17 20 -6 54 -10 75 -8 77 7 211 7
278 -1 52 -6 70 -4 77 6 13 22 2 26 -53 23 -101 -6 -233 -7 -253 -2 -11 2 -51
2 -90 -1z"/>
<path d="M5248 2322 c-70 -6 -39 -18 48 -20 61 0 84 3 81 11 -4 14 -39 16 -48
3 -4 -4 -15 -4 -25 1 -11 4 -36 7 -56 5z"/>
<path d="M5615 2320 c-3 -6 1 -7 9 -4 18 7 21 14 7 14 -6 0 -13 -4 -16 -10z"/>
<path d="M5658 2323 c7 -3 16 -2 19 1 4 3 -2 6 -13 5 -11 0 -14 -3 -6 -6z"/>
<path d="M6071 2326 c2 -2 27 -6 54 -10 34 -3 45 -2 35 4 -14 9 -98 15 -89 6z"/>
<path d="M6338 2323 c7 -3 16 -2 19 1 4 3 -2 6 -13 5 -11 0 -14 -3 -6 -6z"/>
<path d="M6383 2323 c9 -2 25 -2 35 0 9 3 1 5 -18 5 -19 0 -27 -2 -17 -5z"/>
<path d="M6473 2323 c15 -2 39 -2 55 0 15 2 2 4 -28 4 -30 0 -43 -2 -27 -4z"/>
<path d="M5410 2310 c0 -5 5 -10 11 -10 5 0 7 5 4 10 -3 6 -8 10 -11 10 -2 0
-4 -4 -4 -10z"/>
<path d="M8420 2310 c0 -5 5 -10 11 -10 5 0 7 5 4 10 -3 6 -8 10 -11 10 -2 0
-4 -4 -4 -10z"/>
<path d="M5770 2290 c0 -5 7 -7 15 -4 8 4 15 8 15 10 0 2 -7 4 -15 4 -8 0 -15
-4 -15 -10z"/>
<path d="M7011 2098 c0 -104 3 -188 7 -188 5 0 8 65 8 145 -1 80 2 145 6 145
7 0 5 15 -5 40 -3 8 -7 22 -10 30 -2 8 -5 -69 -6 -172z"/>
<path d="M8960 2180 c-13 -8 -12 -10 3 -10 9 0 17 5 17 10 0 12 -1 12 -20 0z"/>
<path d="M5620 2170 c0 -5 7 -10 16 -10 8 0 12 5 9 10 -3 6 -10 10 -16 10 -5
0 -9 -4 -9 -10z"/>
<path d="M6866 2163 c-4 -10 -10 -13 -14 -8 -4 6 -15 11 -25 12 -16 1 -18 -4
-13 -30 4 -18 6 -74 6 -124 l-1 -93 31 0 c27 0 30 2 20 20 -6 10 -10 23 -9 27
1 4 0 10 -1 13 -7 18 -4 60 5 60 6 0 16 14 22 30 7 18 16 28 25 25 9 -3 13 3
13 19 0 20 -3 22 -18 14 -10 -5 -23 -7 -30 -4 -7 3 -6 5 3 5 20 1 25 51 6 51
-8 0 -17 -8 -20 -17z"/>
<path d="M7940 2169 c0 -5 9 -9 20 -9 11 0 20 2 20 4 0 2 -9 6 -20 9 -11 3
-20 1 -20 -4z"/>
<path d="M8205 2170 c4 -6 11 -8 16 -5 14 9 11 15 -7 15 -8 0 -12 -5 -9 -10z"/>
<path d="M5255 2159 c-4 -6 -4 -13 -1 -16 3 -4 6 0 6 8 0 12 2 12 9 0 5 -7 14
-10 20 -7 6 4 9 12 6 17 -8 12 -32 11 -40 -2z"/>
<path d="M6188 2163 c6 -2 18 -2 25 0 6 3 1 5 -13 5 -14 0 -19 -2 -12 -5z"/>
<path d="M6696 2118 c3 -4 28 -8 56 -8 28 0 49 2 47 4 -8 8 -108 12 -103 4z"/>
<path d="M7618 2113 c6 -2 18 -2 25 0 6 3 1 5 -13 5 -14 0 -19 -2 -12 -5z"/>
<path d="M7094 2102 c-6 -4 -16 -22 -22 -41 -15 -41 -15 -44 -2 -36 6 3 10 -2
11 -12 0 -10 1 -34 2 -53 3 -48 21 -50 28 -3 9 52 -3 155 -17 145z"/>
<path d="M6730 2034 c0 -5 9 -17 20 -27 22 -18 27 -63 8 -69 -15 -5 -1 -28 18
-28 10 0 14 12 14 38 0 29 -7 45 -30 67 -16 16 -30 24 -30 19z"/>
<path d="M7320 2005 c0 -9 -10 -20 -22 -25 -18 -7 -19 -9 -5 -9 9 -1 17 -5 17
-11 0 -5 7 -10 16 -10 14 0 15 2 3 17 -10 11 -10 14 -1 9 8 -5 12 1 12 18 0
14 -4 26 -10 26 -5 0 -10 -7 -10 -15z"/>
<path d="M6915 1990 c4 -13 1 -22 -9 -26 -9 -3 -16 -15 -16 -25 0 -25 47 -27
52 -1 6 32 -4 72 -19 72 -10 0 -12 -6 -8 -20z"/>
<path d="M7230 1974 c0 -14 4 -23 9 -20 5 3 7 15 4 26 -7 28 -13 25 -13 -6z"/>
<path d="M7272 1953 c-15 -6 -6 -23 14 -23 8 0 14 7 14 15 0 15 -6 17 -28 8z"/>
<path d="M7490 1952 c0 -21 29 -31 103 -37 l77 -6 -12 25 c-12 27 -41 35 -54
15 -6 -11 -62 -7 -98 7 -9 3 -16 2 -16 -4z"/>
<path d="M7044 1939 c-3 -6 -1 -16 5 -22 8 -8 11 -5 11 11 0 24 -5 28 -16 11z"/>
<path d="M6690 1921 c-16 -4 -21 -9 -13 -14 16 -10 65 2 57 14 -6 10 -8 10
-44 0z"/>
<path d="M6635 1900 c-3 -6 1 -7 9 -4 18 7 21 14 7 14 -6 0 -13 -4 -16 -10z"/>
<path d="M7170 1891 c0 -12 29 -23 41 -15 5 3 7 10 4 15 -8 12 -45 12 -45 0z"/>
<path d="M7013 1875 c0 -11 4 -12 13 -4 7 6 19 7 25 3 8 -4 9 -3 5 4 -10 17
-43 15 -43 -3z"/>
<path d="M6981 1871 c-8 -5 -10 -14 -6 -21 6 -9 10 -8 17 4 12 21 7 28 -11 17z"/>
<path d="M6980 1820 c-11 -7 -11 -10 -2 -10 8 0 10 -5 6 -12 -4 -7 -3 -9 1 -5
7 6 17 37 12 37 -1 0 -9 -5 -17 -10z"/>
<path d="M7038 1813 c7 -3 16 -2 19 1 4 3 -2 6 -13 5 -11 0 -14 -3 -6 -6z"/>
<path d="M7053 1793 c-13 -2 -23 -9 -23 -14 0 -13 13 -11 36 6 10 8 17 14 14
13 -3 0 -15 -3 -27 -5z"/>
<path d="M6290 1760 c0 -5 5 -10 11 -10 5 0 7 5 4 10 -3 6 -8 10 -11 10 -2 0
-4 -4 -4 -10z"/>
<path d="M6785 1751 c-3 -5 -2 -12 3 -15 5 -3 9 1 9 9 0 17 -3 19 -12 6z"/>
<path d="M8030 2685 c0 -16 6 -25 15 -25 8 0 15 7 15 16 0 9 -5 12 -12 8 -8
-5 -9 -2 -5 9 3 10 2 17 -3 17 -6 0 -10 -11 -10 -25z"/>
<path d="M7870 2670 c0 -5 5 -10 10 -10 6 0 10 5 10 10 0 6 -4 10 -10 10 -5 0
-10 -4 -10 -10z"/>
<path d="M9757 2614 c-14 -15 -6 -34 14 -34 14 0 19 5 17 17 -3 18 -20 27 -31
17z"/>
<path d="M3670 2215 c0 -9 6 -12 15 -9 8 4 15 7 15 9 0 2 -7 5 -15 9 -9 3 -15
0 -15 -9z"/>
<path d="M2826 1942 c-3 -5 1 -9 9 -9 8 0 12 4 9 9 -3 4 -7 8 -9 8 -2 0 -6 -4
-9 -8z"/>
<path d="M2796 1902 c-3 -4 4 -9 15 -9 23 -2 25 3 4 10 -8 4 -16 3 -19 -1z"/>
<path d="M2660 1699 c0 -5 5 -7 10 -4 6 3 10 8 10 11 0 2 -4 4 -10 4 -5 0 -10
-5 -10 -11z"/>
<path d="M2716 1697 c3 -10 9 -15 12 -12 3 3 0 11 -7 18 -10 9 -11 8 -5 -6z"/>
<path d="M2729 1293 c-13 -16 -12 -17 4 -4 16 13 21 21 13 21 -2 0 -10 -8 -17
-17z"/>
<path d="M3495 490 c-3 -5 -1 -10 4 -10 6 0 11 5 11 10 0 6 -2 10 -4 10 -3 0
-8 -4 -11 -10z"/>
<path d="M3318 473 c7 -3 16 -2 19 1 4 3 -2 6 -13 5 -11 0 -14 -3 -6 -6z"/>
<path d="M3823 329 c11 -7 23 -7 28 -2 5 5 -3 9 -19 11 -24 1 -25 0 -9 -9z"/>
<path d="M7788 1573 c6 -2 9 -10 6 -15 -4 -7 -2 -8 5 -4 13 9 5 26 -12 25 -9
0 -8 -2 1 -6z"/>
<path d="M7766 1373 c-6 -14 -5 -15 5 -6 7 7 10 15 7 18 -3 3 -9 -2 -12 -12z"/>
<path d="M7860 1379 c0 -5 -4 -8 -9 -4 -5 3 -12 1 -16 -5 -3 -5 3 -10 14 -10
12 0 21 7 21 15 0 8 -2 15 -5 15 -3 0 -5 -5 -5 -11z"/>
<path d="M7890 1374 c0 -18 28 -25 34 -8 3 9 6 17 6 18 0 1 -9 2 -20 2 -11 0
-20 -6 -20 -12z"/>
<path d="M7936 1375 c-3 -8 -1 -15 4 -15 13 0 22 18 11 24 -5 3 -11 -1 -15 -9z"/>
<path d="M7040 1529 c-12 -8 -8 -9 15 -7 25 3 30 -1 29 -18 0 -14 4 -20 13
-17 16 6 17 25 1 41 -15 15 -38 15 -58 1z"/>
<path d="M7136 1457 c3 -10 9 -15 12 -12 3 3 0 11 -7 18 -10 9 -11 8 -5 -6z"/>
<path d="M7255 1350 c3 -5 8 -10 11 -10 2 0 4 5 4 10 0 6 -5 10 -11 10 -5 0
-7 -4 -4 -10z"/>
<path d="M8512 1551 c-11 -7 -11 -9 0 -14 9 -3 15 1 15 9 0 8 -1 14 -1 14 -1
0 -7 -4 -14 -9z"/>
<path d="M8766 1454 c-3 -8 -2 -12 4 -9 6 3 7 -1 4 -9 -3 -9 -1 -16 5 -16 6 0
11 11 11 25 0 28 -15 34 -24 9z"/>
<path d="M8728 1428 c5 -5 16 -8 23 -6 8 3 3 7 -10 11 -17 4 -21 3 -13 -5z"/>
<path d="M5562 1251 c-14 -9 1 -36 19 -37 11 -1 17 7 17 21 0 21 -17 28 -36
16z"/>
<path d="M5588 1183 c7 -3 16 -2 19 1 4 3 -2 6 -13 5 -11 0 -14 -3 -6 -6z"/>
<path d="M5682 1125 c0 -16 2 -22 5 -12 2 9 2 23 0 30 -3 6 -5 -1 -5 -18z"/>
<path d="M5800 1105 c0 -8 7 -15 16 -15 14 0 14 3 4 15 -7 8 -14 15 -16 15 -2
0 -4 -7 -4 -15z"/>
<path d="M5196 1081 c-17 -19 -15 -23 15 -33 12 -5 14 0 11 23 -5 34 -4 34
-26 10z"/>
<path d="M5587 1074 c-3 -3 -3 -22 0 -41 4 -23 2 -34 -4 -30 -17 11 -10 -22 9
-40 23 -21 36 -9 19 19 -8 13 -8 18 -1 13 14 -9 9 27 -5 37 -7 5 -6 8 0 8 6 0
11 9 12 20 2 19 -16 27 -30 14z"/>
<path d="M5057 1003 c-11 -10 -8 -20 8 -27 10 -4 15 1 15 14 0 20 -11 26 -23
13z"/>
<path d="M5150 974 c0 -10 44 -43 58 -44 21 0 13 15 -17 33 -31 18 -41 21 -41
11z"/>
<path d="M5683 860 c0 -25 2 -35 4 -22 2 12 2 32 0 45 -2 12 -4 2 -4 -23z"/>
<path d="M8941 849 c-16 -22 -18 -29 -7 -29 8 0 18 -19 26 -47 10 -40 13 -45
22 -30 5 10 11 42 12 72 3 66 -19 80 -53 34z"/>
<path d="M8930 712 c0 -12 3 -12 15 -2 8 7 15 13 15 15 0 1 -7 2 -15 2 -8 0
-15 -7 -15 -15z"/>
<path d="M8834 269 c-10 -17 13 -36 27 -22 12 12 4 33 -11 33 -5 0 -12 -5 -16
-11z"/>
<path d="M6070 1346 c0 -2 7 -7 16 -10 8 -3 12 -2 9 4 -6 10 -25 14 -25 6z"/>
<path d="M7830 609 c0 -11 32 -20 51 -14 31 10 21 23 -16 22 -19 -1 -35 -4
-35 -8z"/>
<path d="M7855 520 c3 -5 8 -10 11 -10 2 0 4 5 4 10 0 6 -5 10 -11 10 -5 0 -7
-4 -4 -10z"/>
<path d="M7864 378 c-3 -4 11 -7 31 -6 19 1 32 4 29 7 -8 9 -55 8 -60 -1z"/>
<path d="M7993 265 c0 -8 4 -12 9 -9 5 3 6 10 3 15 -9 13 -12 11 -12 -6z"/>
<path d="M8050 270 c0 -6 -4 -9 -9 -5 -5 3 -12 2 -15 -3 -2 -4 6 -9 20 -10 24
-2 33 12 14 23 -5 3 -10 1 -10 -5z"/>
<path d="M7935 240 c3 -5 10 -10 16 -10 5 0 9 5 9 10 0 6 -7 10 -16 10 -8 0
-12 -4 -9 -10z"/>
<path d="M8014 148 c-4 -5 -3 -12 0 -15 3 -4 6 -1 6 6 0 7 4 10 9 6 5 -3 12
-2 15 3 3 5 -2 9 -10 9 -8 0 -17 -4 -20 -9z"/>
<path d="M6870 3195 c0 -8 4 -15 9 -15 5 0 14 7 21 15 10 13 9 15 -9 15 -12 0
-21 -6 -21 -15z"/>
<path d="M9688 3203 c7 -3 16 -2 19 1 4 3 -2 6 -13 5 -11 0 -14 -3 -6 -6z"/>
<path d="M7085 3164 c-19 -17 -25 -28 -17 -31 6 -3 12 -9 12 -15 0 -6 8 -16
17 -23 15 -11 21 -9 40 11 27 30 28 33 7 62 -19 28 -23 28 -59 -4z"/>
<path d="M6960 3170 c14 -9 13 -11 -10 -14 -11 -1 -30 -25 -30 -39 0 -5 6 -5
13 0 6 4 20 6 30 5 10 -2 17 3 17 13 0 8 7 18 16 22 13 5 13 7 2 14 -7 5 -22
9 -33 9 -17 0 -17 -2 -5 -10z"/>
<path d="M6375 1510 c-3 -5 -1 -10 4 -10 6 0 11 5 11 10 0 6 -2 10 -4 10 -3 0
-8 -4 -11 -10z"/>
<path d="M6411 1484 c0 -11 3 -14 6 -6 3 7 2 16 -1 19 -3 4 -6 -2 -5 -13z"/>
<path d="M6440 1245 c0 -8 4 -15 10 -15 5 0 7 7 4 15 -4 8 -8 15 -10 15 -2 0
-4 -7 -4 -15z"/>
<path d="M6933 955 c15 -55 19 -65 26 -65 5 0 3 16 -3 35 -13 38 -32 62 -23
30z"/>
<path d="M6973 953 c1 -17 4 -19 14 -11 7 6 13 16 13 22 0 6 -4 5 -9 -3 -7
-11 -9 -11 -14 0 -3 8 -4 4 -4 -8z"/>
<path d="M6906 801 c-3 -5 1 -11 9 -15 8 -3 15 -1 15 4 0 13 -18 22 -24 11z"/>
<path d="M7255 800 c3 -5 14 -10 23 -10 15 0 15 2 2 10 -20 13 -33 13 -25 0z"/>
<path d="M7250 765 c0 -5 8 -17 18 -28 9 -11 11 -17 5 -13 -10 5 -13 -6 -13
-46 l1 -53 25 48 c25 49 25 93 -1 84 -7 -3 -18 0 -24 6 -6 6 -11 7 -11 2z"/>
<path d="M6897 683 c-3 -15 0 -22 7 -20 6 2 11 8 11 13 0 5 3 14 7 20 4 6 1
11 -7 11 -7 0 -15 -11 -18 -24z"/>
<path d="M7070 560 c0 -5 5 -10 11 -10 5 0 7 5 4 10 -3 6 -8 10 -11 10 -2 0
-4 -4 -4 -10z"/>
<path d="M6380 529 c0 -5 5 -7 10 -4 6 3 10 8 10 11 0 2 -4 4 -10 4 -5 0 -10
-5 -10 -11z"/>
<path d="M7078 463 c-4 -14 0 -24 8 -27 15 -6 16 -1 5 28 -7 19 -8 19 -13 -1z"/>
<path d="M7085 400 c-4 -6 -2 -16 4 -23 5 -7 8 -27 5 -45 -3 -19 -1 -32 5 -32
6 0 11 -4 11 -10 0 -5 -6 -8 -12 -6 -7 1 -10 1 -5 -2 10 -5 47 -88 47 -106 0
-8 9 -18 20 -21 36 -12 68 -107 39 -117 -5 -2 -7 -11 -4 -21 6 -14 20 -17 72
-17 73 0 73 -4 -2 85 -55 66 -80 111 -125 230 -34 87 -44 103 -55 85z"/>
</g>
</svg>
